<mxfile modified="2022-04-27T03:16:33.503Z" host="app.diagrams.net" agent="5.0 (Windows NT 10.0; Win64; x64) AppleWebKit/537.36 (KHTML, like Gecko) Chrome/100.0.4896.127 Safari/537.36" etag="-cMwIJPvR3Dq-bBXuFak" version="17.4.6" type="github">
  <diagram id="WI9T0HZ2pTsCkuznbFz-" name="Page-1">
    <mxGraphModel dx="1026" dy="486" grid="1" gridSize="10" guides="1" tooltips="1" connect="1" arrows="1" fold="1" page="1" pageScale="1" pageWidth="827" pageHeight="1169" math="0" shadow="0">
      <root>
        <mxCell id="0" />
        <mxCell id="1" parent="0" />
        <mxCell id="RUdyyS04vA0CPSo_Z_gt-13" value="On-Premise" style="sketch=0;outlineConnect=0;gradientColor=none;html=1;whiteSpace=wrap;fontSize=12;fontStyle=0;shape=mxgraph.aws4.group;grIcon=mxgraph.aws4.group_on_premise;strokeColor=#858B94;fillColor=none;verticalAlign=top;align=left;spacingLeft=30;fontColor=#858B94;dashed=0;" parent="1" vertex="1">
          <mxGeometry x="1000" y="1018.63" width="480" height="101.37" as="geometry" />
        </mxCell>
        <mxCell id="RUdyyS04vA0CPSo_Z_gt-12" value="Azure" style="sketch=0;outlineConnect=0;html=1;whiteSpace=wrap;fontSize=12;fontStyle=0;shape=mxgraph.aws4.group;grIcon=mxgraph.aws4.group_on_premise;strokeColor=#6c8ebf;fillColor=#dae8fc;verticalAlign=top;align=left;spacingLeft=30;dashed=0;" parent="1" vertex="1">
          <mxGeometry x="1005" y="660" width="480" height="281.75" as="geometry" />
        </mxCell>
        <mxCell id="RUdyyS04vA0CPSo_Z_gt-42" value="10.151.0.0/17" style="group" parent="1" vertex="1" connectable="0">
          <mxGeometry x="1140" y="690" width="105" height="210" as="geometry" />
        </mxCell>
        <mxCell id="RUdyyS04vA0CPSo_Z_gt-44" value="" style="rounded=0;whiteSpace=wrap;html=1;fillColor=none;strokeColor=#7EA6E0;fontColor=#333333;labelBackgroundColor=none;dashed=1;strokeWidth=2;" parent="RUdyyS04vA0CPSo_Z_gt-42" vertex="1">
          <mxGeometry width="105" height="210.00000000000014" as="geometry" />
        </mxCell>
        <mxCell id="RUdyyS04vA0CPSo_Z_gt-43" value="" style="verticalLabelPosition=bottom;html=1;verticalAlign=top;align=center;strokeColor=none;fillColor=#00BEF2;shape=mxgraph.azure.virtual_network;pointerEvents=1;" parent="RUdyyS04vA0CPSo_Z_gt-42" vertex="1">
          <mxGeometry x="83.12500000000001" y="188.05298636149865" width="21.875000000000004" height="21.947013638501343" as="geometry" />
        </mxCell>
        <mxCell id="RUdyyS04vA0CPSo_Z_gt-55" value="Azure Active&lt;br&gt;Directory" style="aspect=fixed;html=1;perimeter=none;align=center;shadow=0;dashed=0;image;fontSize=12;image=img/lib/mscae/Active_Directory.svg;labelBackgroundColor=none;" parent="RUdyyS04vA0CPSo_Z_gt-42" vertex="1">
          <mxGeometry x="27.49999999999999" y="22.100350877192984" width="50" height="50" as="geometry" />
        </mxCell>
        <mxCell id="rYsjbnjLWIEjAzCpw-MW-5" value="VPN Gateway" style="sketch=0;outlineConnect=0;fontColor=#232F3E;gradientColor=none;strokeColor=#232F3E;fillColor=#ffffff;dashed=0;verticalLabelPosition=bottom;verticalAlign=top;align=center;html=1;fontSize=12;fontStyle=0;aspect=fixed;shape=mxgraph.aws4.resourceIcon;resIcon=mxgraph.aws4.vpn_gateway;" parent="RUdyyS04vA0CPSo_Z_gt-42" vertex="1">
          <mxGeometry x="43.5" y="154.04999999999995" width="34" height="34" as="geometry" />
        </mxCell>
        <mxCell id="KFFGUHIh-ZLJzB-CHe2z-18" value="Azure" style="sketch=0;outlineConnect=0;html=1;whiteSpace=wrap;fontSize=12;fontStyle=0;shape=mxgraph.aws4.group;grIcon=mxgraph.aws4.group_on_premise;strokeColor=#6c8ebf;fillColor=#dae8fc;verticalAlign=top;align=left;spacingLeft=30;dashed=0;" parent="1" vertex="1">
          <mxGeometry x="200" y="680" width="480" height="261.75" as="geometry" />
        </mxCell>
        <mxCell id="RUdyyS04vA0CPSo_Z_gt-4" value="" style="group" parent="1" vertex="1" connectable="0">
          <mxGeometry x="331.01" y="700" width="110" height="180" as="geometry" />
        </mxCell>
        <mxCell id="RUdyyS04vA0CPSo_Z_gt-1" value="" style="verticalLabelPosition=bottom;html=1;verticalAlign=top;align=center;strokeColor=none;fillColor=#00BEF2;shape=mxgraph.azure.virtual_network;pointerEvents=1;" parent="RUdyyS04vA0CPSo_Z_gt-4" vertex="1">
          <mxGeometry x="87.08333333333334" y="161.1882740241417" width="22.916666666666668" height="18.81172597585829" as="geometry" />
        </mxCell>
        <mxCell id="RUdyyS04vA0CPSo_Z_gt-2" value="" style="rounded=0;whiteSpace=wrap;html=1;fillColor=none;strokeColor=#7EA6E0;fontColor=#333333;labelBackgroundColor=none;dashed=1;strokeWidth=2;" parent="RUdyyS04vA0CPSo_Z_gt-4" vertex="1">
          <mxGeometry width="110" height="180.0000000000001" as="geometry" />
        </mxCell>
        <mxCell id="KFFGUHIh-ZLJzB-CHe2z-26" value="Azure Active&lt;br&gt;Directory" style="aspect=fixed;html=1;perimeter=none;align=center;shadow=0;dashed=0;image;fontSize=12;image=img/lib/mscae/Active_Directory.svg;labelBackgroundColor=none;" parent="RUdyyS04vA0CPSo_Z_gt-4" vertex="1">
          <mxGeometry x="25" y="10" width="50" height="50" as="geometry" />
        </mxCell>
        <mxCell id="KFFGUHIh-ZLJzB-CHe2z-63" value="On-Premise" style="sketch=0;outlineConnect=0;gradientColor=none;html=1;whiteSpace=wrap;fontSize=12;fontStyle=0;shape=mxgraph.aws4.group;grIcon=mxgraph.aws4.group_on_premise;strokeColor=#858B94;fillColor=none;verticalAlign=top;align=left;spacingLeft=30;fontColor=#858B94;dashed=0;" parent="1" vertex="1">
          <mxGeometry x="195" y="1018.63" width="480" height="101.37" as="geometry" />
        </mxCell>
        <mxCell id="RUdyyS04vA0CPSo_Z_gt-6" value="" style="group" parent="1" vertex="1" connectable="0">
          <mxGeometry x="513.58" y="700" width="130.28" height="230" as="geometry" />
        </mxCell>
        <mxCell id="RUdyyS04vA0CPSo_Z_gt-7" value="" style="verticalLabelPosition=bottom;html=1;verticalAlign=top;align=center;strokeColor=none;fillColor=#00BEF2;shape=mxgraph.azure.virtual_network;pointerEvents=1;" parent="RUdyyS04vA0CPSo_Z_gt-6" vertex="1">
          <mxGeometry x="103.13833333333334" y="205.96279458640328" width="27.141666666666666" height="24.03720541359671" as="geometry" />
        </mxCell>
        <mxCell id="RUdyyS04vA0CPSo_Z_gt-8" value="" style="rounded=0;whiteSpace=wrap;html=1;fillColor=none;strokeColor=#7EA6E0;fontColor=#333333;labelBackgroundColor=none;dashed=1;strokeWidth=2;" parent="RUdyyS04vA0CPSo_Z_gt-6" vertex="1">
          <mxGeometry width="130.28" height="230.00000000000017" as="geometry" />
        </mxCell>
        <mxCell id="RUdyyS04vA0CPSo_Z_gt-11" value="" style="shape=image;verticalLabelPosition=bottom;labelBackgroundColor=#ffffff;verticalAlign=top;aspect=fixed;imageAspect=0;image=data:image/svg+xml,PHN2ZyB4bWxuczpjYz0iaHR0cDovL2NyZWF0aXZlY29tbW9ucy5vcmcvbnMjIiB4bWxuczpkYz0iaHR0cDovL3B1cmwub3JnL2RjL2VsZW1lbnRzLzEuMS8iIHhtbG5zOmlua3NjYXBlPSJodHRwOi8vd3d3Lmlua3NjYXBlLm9yZy9uYW1lc3BhY2VzL2lua3NjYXBlIiB4bWxuczpyZGY9Imh0dHA6Ly93d3cudzMub3JnLzE5OTkvMDIvMjItcmRmLXN5bnRheC1ucyMiIHhtbG5zOnNvZGlwb2RpPSJodHRwOi8vc29kaXBvZGkuc291cmNlZm9yZ2UubmV0L0RURC9zb2RpcG9kaS0wLmR0ZCIgeG1sbnM6c3ZnPSJodHRwOi8vd3d3LnczLm9yZy8yMDAwL3N2ZyIgeG1sbnM9Imh0dHA6Ly93d3cudzMub3JnLzIwMDAvc3ZnIiB4bWxuczp4bGluaz0iaHR0cDovL3d3dy53My5vcmcvMTk5OS94bGluayIgdmVyc2lvbj0iMS4xIiBpZD0ic3ZnODc3MDAiIGlua3NjYXBlOnZlcnNpb249IjAuOTIuMyAoMjQwNTU0NiwgMjAxOC0wMy0xMSkiIHNvZGlwb2RpOmRvY25hbWU9Im5ldHdvcmtfc2VjdXJpdHlfZ3JvdXAuc3ZnIiB4PSIwcHgiIHk9IjBweCIgdmlld0JveD0iMCAwIDIyLjgzIDMxLjEyIiBzdHlsZT0iZW5hYmxlLWJhY2tncm91bmQ6bmV3IDAgMCAyMi44MyAzMS4xMjsiIHhtbDpzcGFjZT0icHJlc2VydmUiPiYjeGE7PHNvZGlwb2RpOm5hbWVkdmlldyBib3JkZXJjb2xvcj0iIzY2NjY2NiIgYm9yZGVyb3BhY2l0eT0iMSIgZml0LW1hcmdpbi1ib3R0b209IjAiIGZpdC1tYXJnaW4tbGVmdD0iMCIgZml0LW1hcmdpbi1yaWdodD0iMCIgZml0LW1hcmdpbi10b3A9IjAiIGdyaWR0b2xlcmFuY2U9IjEwIiBndWlkZXRvbGVyYW5jZT0iMTAiIGlkPSJuYW1lZHZpZXc4NzcwMiIgaW5rc2NhcGU6Y3VycmVudC1sYXllcj0ic3ZnODc3MDAiIGlua3NjYXBlOmN4PSI3Ljc4MzU0ODIiIGlua3NjYXBlOmN5PSIxNi4yMjc2MjMiIGlua3NjYXBlOnBhZ2VvcGFjaXR5PSIwIiBpbmtzY2FwZTpwYWdlc2hhZG93PSIyIiBpbmtzY2FwZTp3aW5kb3ctaGVpZ2h0PSIxMDE3IiBpbmtzY2FwZTp3aW5kb3ctbWF4aW1pemVkPSIxIiBpbmtzY2FwZTp3aW5kb3ctd2lkdGg9IjE5MjAiIGlua3NjYXBlOndpbmRvdy14PSItOCIgaW5rc2NhcGU6d2luZG93LXk9Ii04IiBpbmtzY2FwZTp6b29tPSIxNC4wOTU3MzQiIG9iamVjdHRvbGVyYW5jZT0iMTAiIHBhZ2Vjb2xvcj0iI2ZmZmZmZiIgc2hvd2dyaWQ9ImZhbHNlIj4mI3hhOwk8L3NvZGlwb2RpOm5hbWVkdmlldz4mI3hhOzxnIGlkPSJnODc2OTgiIHRyYW5zZm9ybT0idHJhbnNsYXRlKC0wLjc1LC0wLjc1KSI+JiN4YTsJPHRpdGxlIGlkPSJ0aXRsZTg3NjQyIj5QYWdlLTE8L3RpdGxlPiYjeGE7CTxnIGlkPSJncm91cDU2NjktMSIgdHJhbnNmb3JtPSJ0cmFuc2xhdGUoMC43NSwtMC43NSkiPiYjeGE7CQk8dGl0bGUgaWQ9InRpdGxlODc2NDQiPk5ldHdvcmsgU2VjdXJpdHkgR3JvdXA8L3RpdGxlPiYjeGE7CQk8ZyBpZD0ic2hhcGU1NjcwLTIiPiYjeGE7CQkJPHRpdGxlIGlkPSJ0aXRsZTg3NjQ2Ij5TaGVldC41NjcwPC90aXRsZT4mI3hhOwkJCTxwYXRoIGlkPSJwYXRoODc2NDgiIGlua3NjYXBlOmNvbm5lY3Rvci1jdXJ2YXR1cmU9IjAiIHN0eWxlPSJmaWxsOiMzOTk5QzY7IiBkPSJNMTkuNDYsNS4yNEMxMi42LDQuNDksMTEuNDEsMS41LDExLjQxLDEuNSAgICAgUzkuODUsNS4zNywwLDUuMzd2MTUuOTZjMCwxLjkzLDEuMDYsMy43NCwyLjU2LDUuM2MzLjM2LDMuNTYsOC44NSw1Ljk5LDguODUsNS45OXMxMS40Mi00Ljk5LDExLjQyLTExLjI5VjUuMzcgICAgIEMyMS41OCw1LjM3LDIwLjQ2LDUuMywxOS40Niw1LjI0eiIvPiYjeGE7CQk8L2c+JiN4YTsJCTxnIGlkPSJzaGFwZTU2NzEtNCIgdHJhbnNmb3JtPSJ0cmFuc2xhdGUoMCwtNS45ODY5MikiPiYjeGE7CQkJPHRpdGxlIGlkPSJ0aXRsZTg3NjUxIj5TaGVldC41NjcxPC90aXRsZT4mI3hhOwkJCTxwYXRoIGlkPSJwYXRoODc2NTMiIGlua3NjYXBlOmNvbm5lY3Rvci1jdXJ2YXR1cmU9IjAiIHN0eWxlPSJmaWxsOiM1OUI0RDk7ZmlsbC1vcGFjaXR5OjAuNDsiIGQ9Ik0xNC4yOCwxNy43OGw1LjE4LTYuNTUgICAgIGMtNi44Ni0wLjc1LTguMDUtMy43NC04LjA1LTMuNzRTOS44NSwxMS4zNSwwLDExLjM1djE1Ljk3YzAsMS45MywxLjA2LDMuNzQsMi41Niw1LjNsMy44Ni00Ljg2TDE0LjI4LDE3Ljc4eiIvPiYjeGE7CQk8L2c+JiN4YTsJCTxnIGlkPSJncm91cDU2NzItNiIgdHJhbnNmb3JtPSJ0cmFuc2xhdGUoMi4zMDc0NiwtMy4xMTgxOSkiPiYjeGE7CQkJPHRpdGxlIGlkPSJ0aXRsZTg3NjU2Ij5TaGVldC41NjcyPC90aXRsZT4mI3hhOwkJCTxnIGlkPSJzaGFwZTU2NzMtNyIgdHJhbnNmb3JtPSJ0cmFuc2xhdGUoMC4wNjIzNjM3KSI+JiN4YTsJCQkJPHRpdGxlIGlkPSJ0aXRsZTg3NjU4Ij5TaGVldC41NjczPC90aXRsZT4mI3hhOwkJCQk8cGF0aCBpZD0icGF0aDg3NjYwIiBpbmtzY2FwZTpjb25uZWN0b3ItY3VydmF0dXJlPSIwIiBzdHlsZT0iZmlsbDojRkZGRkZGO2ZpbGwtb3BhY2l0eTowLjM7IiBkPSJNMCwxOS44M3YzLjgxICAgICAgYzAsMS41NiwwLjg3LDIuOTksMi4wNiw0LjI0YzIuNjgsMi44Nyw3LjA1LDQuNzQsNy4wNSw0Ljc0VjE5LjgzSDB6Ii8+JiN4YTsJCQk8L2c+JiN4YTsJCQk8ZyBpZD0ic2hhcGU1Njc0LTkiIHRyYW5zZm9ybT0idHJhbnNsYXRlKDkuMTA1MSkiPiYjeGE7CQkJCTx0aXRsZSBpZD0idGl0bGU4NzY2MyI+U2hlZXQuNTY3NDwvdGl0bGU+JiN4YTsJCQkJPHBhdGggaWQ9InBhdGg4NzY2NSIgaW5rc2NhcGU6Y29ubmVjdG9yLWN1cnZhdHVyZT0iMCIgc3R5bGU9ImZpbGw6I0ZGRkZGRjtmaWxsLW9wYWNpdHk6MC43OyIgZD0iTTAsMzIuNjIgICAgICBjMCwwLDkuMTEtMy45OSw5LjExLTguOTh2LTMuODFIMFYzMi42MnoiLz4mI3hhOwkJCTwvZz4mI3hhOwkJCTxnIGlkPSJzaGFwZTU2NzUtMTEiIHRyYW5zZm9ybT0idHJhbnNsYXRlKDAsLTEyLjc4NDYpIj4mI3hhOwkJCQk8dGl0bGUgaWQ9InRpdGxlODc2NjgiPlNoZWV0LjU2NzU8L3RpdGxlPiYjeGE7CQkJCTxwYXRoIGlkPSJwYXRoODc2NzAiIGlua3NjYXBlOmNvbm5lY3Rvci1jdXJ2YXR1cmU9IjAiIHN0eWxlPSJmaWxsOiNGRkZGRkY7ZmlsbC1vcGFjaXR5OjAuNzsiIGQ9Ik05LjExLDIwLjU4ICAgICAgYzAsMC0xLjI1LDMuMTItOS4xMSwzLjEydjguOTJoOS4xMVYyMC41OHoiLz4mI3hhOwkJCTwvZz4mI3hhOwkJCTxnIGlkPSJzaGFwZTU2NzYtMTMiIHRyYW5zZm9ybT0idHJhbnNsYXRlKDkuMTA1MSwtMTIuNzg0NikiPiYjeGE7CQkJCTx0aXRsZSBpZD0idGl0bGU4NzY3MyI+U2hlZXQuNTY3NjwvdGl0bGU+JiN4YTsJCQkJPHBhdGggaWQ9InBhdGg4NzY3NSIgaW5rc2NhcGU6Y29ubmVjdG9yLWN1cnZhdHVyZT0iMCIgc3R5bGU9ImZpbGw6I0ZGRkZGRjtmaWxsLW9wYWNpdHk6MC4zOyIgZD0iTTYuMzYsMjMuNTggICAgICBDMC45NCwyMi45NSwwLDIwLjY1LDAsMjAuNjV2MTEuOTdoOS4xMVYyMy43QzguMTEsMjMuNyw3LjE3LDIzLjY0LDYuMzYsMjMuNTh6Ii8+JiN4YTsJCQk8L2c+JiN4YTsJCTwvZz4mI3hhOwkJPGcgaWQ9Imdyb3VwNTY3Ny0xNSIgdHJhbnNmb3JtPSJ0cmFuc2xhdGUoMy4xMjQ0MiwtMTIuNzc0NikiPiYjeGE7CQkJPHRpdGxlIGlkPSJ0aXRsZTg3Njc5Ij5TaGVldC41Njc3PC90aXRsZT4mI3hhOwkJCTxnIGlkPSJzaGFwZTU2NzgtMTYiIHRyYW5zZm9ybT0idHJhbnNsYXRlKDAsLTAuMTAyOSkiPiYjeGE7CQkJCTx0aXRsZSBpZD0idGl0bGU4NzY4MSI+U2hlZXQuNTY3ODwvdGl0bGU+JiN4YTsJCQkJPHBhdGggaWQ9InBhdGg4NzY4MyIgaW5rc2NhcGU6Y29ubmVjdG9yLWN1cnZhdHVyZT0iMCIgc3R5bGU9ImZpbGw6IzNFM0UzRTsiIGQ9Ik01LjE4LDMyLjYyaC0xLjFsLTIuOTMtNC40OSAgICAgIGMtMC4wNy0wLjEyLTAuMTMtMC4yNC0wLjE4LTAuMzZIMC45NWMwLjAyLDAuMTMsMC4wMywwLjQxLDAuMDMsMC44NHY0LjAxSDB2LTYuMTFoMS4xOEw0LDMwLjg5YzAuMTIsMC4xOCwwLjIsMC4zMSwwLjIzLDAuMzggICAgICBoMC4wMmMtMC4wMy0wLjE2LTAuMDQtMC40NC0wLjA0LTAuODJ2LTMuOTRoMC45N0w1LjE4LDMyLjYyeiIvPiYjeGE7CQkJPC9nPiYjeGE7CQkJPGcgaWQ9InNoYXBlNTY3OS0xOCIgdHJhbnNmb3JtPSJ0cmFuc2xhdGUoNi40MTA5OSkiPiYjeGE7CQkJCTx0aXRsZSBpZD0idGl0bGU4NzY4NiI+U2hlZXQuNTY3OTwvdGl0bGU+JiN4YTsJCQkJPHBhdGggaWQ9InBhdGg4NzY4OCIgaW5rc2NhcGU6Y29ubmVjdG9yLWN1cnZhdHVyZT0iMCIgc3R5bGU9ImZpbGw6IzNFM0UzRTsiIGQ9Ik0wLDMyLjI3di0xLjA0YzAuMSwwLjA4LDAuMjEsMC4xNiwwLjM0LDAuMjMgICAgICBzMC4yNywwLjEyLDAuNDEsMC4xN2MwLjE1LDAuMDUsMC4yOSwwLjA4LDAuNDQsMC4xMWMwLjE0LDAuMDMsMC4yNywwLjA0LDAuNCwwLjA0YzAuNDIsMCwwLjc0LTAuMDcsMC45NS0wLjIyICAgICAgYzAuMjEtMC4xNCwwLjMxLTAuMzQsMC4zMS0wLjYxYzAtMC4xNS0wLjAzLTAuMjctMC4xLTAuMzhjLTAuMDctMC4xMS0wLjE3LTAuMi0wLjI5LTAuMjljLTAuMTMtMC4wOS0wLjI4LTAuMTgtMC40NS0wLjI2ICAgICAgYy0wLjE2LTAuMDgtMC4zNS0wLjE2LTAuNTQtMC4yNWMtMC4yMS0wLjExLTAuNC0wLjIyLTAuNTgtMC4zNGMtMC4xOC0wLjExLTAuMzMtMC4yNC0wLjQ3LTAuMzdjLTAuMTMtMC4xNC0wLjIzLTAuMy0wLjMxLTAuNDcgICAgICBDMC4wNCwyOC40MiwwLDI4LjIxLDAsMjcuOThjMC0wLjI5LDAuMDYtMC41NCwwLjE5LTAuNzVjMC4xMy0wLjIxLDAuMy0wLjM5LDAuNTItMC41MmMwLjIxLTAuMTQsMC40NS0wLjI0LDAuNzItMC4zMSAgICAgIHMwLjU0LTAuMSwwLjgzLTAuMWMwLjYzLDAsMS4xLDAuMDcsMS4zOSwwLjIydjFjLTAuMzQtMC4yNS0wLjc5LTAuMzgtMS4zNC0wLjM4Yy0wLjE1LDAtMC4zLDAuMDItMC40NCwwLjA1ICAgICAgYy0wLjE1LDAuMDItMC4yOSwwLjA3LTAuNDEsMC4xNGMtMC4xMSwwLjA2LTAuMjEsMC4xNS0wLjI4LDAuMjVjLTAuMDgsMC4xLTAuMTEsMC4yMy0wLjExLDAuMzdjMCwwLjE0LDAuMDIsMC4yNSwwLjA4LDAuMzUgICAgICBjMC4wNiwwLjEsMC4xNCwwLjE5LDAuMjUsMC4yOGMwLjExLDAuMDgsMC4yNCwwLjE2LDAuNCwwLjI0czAuMzQsMC4xNiwwLjU1LDAuMjVjMC4yMSwwLjExLDAuNDEsMC4yMywwLjYsMC4zNSAgICAgIGMwLjE5LDAuMTIsMC4zNiwwLjI2LDAuNSwwLjQxYzAuMTUsMC4xNCwwLjI2LDAuMzEsMC4zNCwwLjQ5YzAuMDksMC4xOCwwLjEzLDAuMzgsMC4xMywwLjYyYzAsMC4zLTAuMDYsMC41Ny0wLjE5LDAuNzggICAgICBjLTAuMTIsMC4yMS0wLjI5LDAuMzktMC41LDAuNTJjLTAuMjIsMC4xMy0wLjQ2LDAuMjMtMC43NCwwLjI5Yy0wLjI3LDAuMDYtMC41NiwwLjA5LTAuODcsMC4wOWMtMC4xLDAtMC4yMy0wLjAxLTAuMzgtMC4wMiAgICAgIGMtMC4xNS0wLjAyLTAuMy0wLjA0LTAuNDUtMC4wN2MtMC4xNi0wLjAzLTAuMzEtMC4wNy0wLjQ1LTAuMTFDMC4yLDMyLjM4LDAuMDksMzIuMzMsMCwzMi4yN3oiLz4mI3hhOwkJCTwvZz4mI3hhOwkJCTxnIGlkPSJzaGFwZTU2ODAtMjAiIHRyYW5zZm9ybT0idHJhbnNsYXRlKDExLjA1ODMsLTAuMDAxMjQ3MjcpIj4mI3hhOwkJCQk8dGl0bGUgaWQ9InRpdGxlODc2OTEiPlNoZWV0LjU2ODA8L3RpdGxlPiYjeGE7CQkJCTxwYXRoIGlkPSJwYXRoODc2OTMiIGlua3NjYXBlOmNvbm5lY3Rvci1jdXJ2YXR1cmU9IjAiIHN0eWxlPSJmaWxsOiMzRTNFM0U7IiBkPSJNNS4xNiwzMi4xYy0wLjYzLDAuMzUtMS4zNCwwLjUyLTIuMTIsMC41MiAgICAgIGMtMC45MSwwLTEuNjQtMC4yOC0yLjItMC44NEMwLjI4LDMxLjIxLDAsMzAuNDcsMCwyOS41NGMwLTAuOTUsMC4zMS0xLjcyLDAuOTItMi4zM2MwLjYxLTAuNjEsMS4zOS0wLjkxLDIuMzMtMC45MSAgICAgIGMwLjY4LDAsMS4yNSwwLjEsMS43MiwwLjN2MS4wNGMtMC40Ny0wLjMxLTEuMDMtMC40Ni0xLjY4LTAuNDZzLTEuMTgsMC4yMS0xLjYsMC42NHMtMC42MiwwLjk4LTAuNjIsMS42NyAgICAgIGMwLDAuNywwLjE3LDEuMjUsMC41MywxLjY1czAuODUsMC42MSwxLjQ2LDAuNjFjMC40MiwwLDAuNzktMC4wOSwxLjA5LTAuMjV2LTEuNDVIMi44NlYyOS4yaDIuM0M1LjE2LDI5LjIsNS4xNiwzMi4xLDUuMTYsMzIuMSAgICAgIHoiLz4mI3hhOwkJCTwvZz4mI3hhOwkJPC9nPiYjeGE7CTwvZz4mI3hhOzwvZz4mI3hhOzwvc3ZnPg==;dashed=1;strokeColor=#7EA6E0;strokeWidth=2;fillColor=none;" parent="RUdyyS04vA0CPSo_Z_gt-6" vertex="1">
          <mxGeometry x="-13.580000000000041" y="110" width="23" height="31" as="geometry" />
        </mxCell>
        <mxCell id="rI1JX8pW7Fap40Gf1UJg-1" value="" style="rounded=0;whiteSpace=wrap;html=1;fillColor=#EAEDED;fontSize=22;fontColor=#FFFFFF;strokeColor=none;labelBackgroundColor=none;" parent="1" vertex="1">
          <mxGeometry x="710" y="85" width="390" height="235" as="geometry" />
        </mxCell>
        <mxCell id="T0ahu72QXb7B3IJqf_Je-21" value="Azure" style="sketch=0;outlineConnect=0;html=1;whiteSpace=wrap;fontSize=12;fontStyle=0;shape=mxgraph.aws4.group;grIcon=mxgraph.aws4.group_on_premise;strokeColor=#6c8ebf;fillColor=#dae8fc;verticalAlign=top;align=left;spacingLeft=30;dashed=0;" parent="1" vertex="1">
          <mxGeometry x="190" y="86.5" width="480" height="253.5" as="geometry" />
        </mxCell>
        <mxCell id="28heIlWIprtDJxRmpmQK-6" value="" style="rounded=0;whiteSpace=wrap;html=1;fillColor=#f5f5f5;strokeColor=none;fontColor=#333333;labelBackgroundColor=none;" parent="1" vertex="1">
          <mxGeometry x="500" y="100" width="150" height="230" as="geometry" />
        </mxCell>
        <mxCell id="KFFGUHIh-ZLJzB-CHe2z-66" value="" style="edgeStyle=orthogonalEdgeStyle;rounded=0;orthogonalLoop=1;jettySize=auto;html=1;fontSize=14;fontColor=#000000;startArrow=classic;startFill=1;endArrow=classicThin;endFill=1;strokeColor=#808080;strokeWidth=2;" parent="1" source="T0ahu72QXb7B3IJqf_Je-20" target="KFFGUHIh-ZLJzB-CHe2z-12" edge="1">
          <mxGeometry relative="1" as="geometry" />
        </mxCell>
        <mxCell id="T0ahu72QXb7B3IJqf_Je-20" value="On-Premise" style="sketch=0;outlineConnect=0;gradientColor=none;html=1;whiteSpace=wrap;fontSize=12;fontStyle=0;shape=mxgraph.aws4.group;grIcon=mxgraph.aws4.group_on_premise;strokeColor=#858B94;fillColor=none;verticalAlign=top;align=left;spacingLeft=30;fontColor=#858B94;dashed=0;" parent="1" vertex="1">
          <mxGeometry x="190" y="430" width="480" height="120" as="geometry" />
        </mxCell>
        <mxCell id="28heIlWIprtDJxRmpmQK-2" value="" style="rounded=0;whiteSpace=wrap;html=1;fillColor=#f5f5f5;strokeColor=none;fontColor=#333333;labelBackgroundColor=none;" parent="1" vertex="1">
          <mxGeometry x="40" y="100" width="110" height="100" as="geometry" />
        </mxCell>
        <mxCell id="T0ahu72QXb7B3IJqf_Je-28" style="edgeStyle=orthogonalEdgeStyle;rounded=0;orthogonalLoop=1;jettySize=auto;html=1;fontColor=#99CCFF;startArrow=none;startFill=1;endArrow=classicThin;endFill=1;strokeColor=#808080;strokeWidth=2;" parent="1" source="28heIlWIprtDJxRmpmQK-16" target="T0ahu72QXb7B3IJqf_Je-25" edge="1">
          <mxGeometry relative="1" as="geometry" />
        </mxCell>
        <mxCell id="eWjkR0wsdmifyLcniZH0-4" value="PC" style="shape=image;verticalLabelPosition=bottom;labelBackgroundColor=none;verticalAlign=top;aspect=fixed;imageAspect=0;image=data:image/svg+xml,PHN2ZyB4bWxuczpjYz0iaHR0cDovL2NyZWF0aXZlY29tbW9ucy5vcmcvbnMjIiB4bWxuczpkYz0iaHR0cDovL3B1cmwub3JnL2RjL2VsZW1lbnRzLzEuMS8iIHhtbG5zOmlua3NjYXBlPSJodHRwOi8vd3d3Lmlua3NjYXBlLm9yZy9uYW1lc3BhY2VzL2lua3NjYXBlIiB4bWxuczpyZGY9Imh0dHA6Ly93d3cudzMub3JnLzE5OTkvMDIvMjItcmRmLXN5bnRheC1ucyMiIHhtbG5zOnNvZGlwb2RpPSJodHRwOi8vc29kaXBvZGkuc291cmNlZm9yZ2UubmV0L0RURC9zb2RpcG9kaS0wLmR0ZCIgeG1sbnM6c3ZnPSJodHRwOi8vd3d3LnczLm9yZy8yMDAwL3N2ZyIgeG1sbnM9Imh0dHA6Ly93d3cudzMub3JnLzIwMDAvc3ZnIiB4bWxuczp4bGluaz0iaHR0cDovL3d3dy53My5vcmcvMTk5OS94bGluayIgdmVyc2lvbj0iMS4xIiBpZD0ic3ZnMzE5NiIgaW5rc2NhcGU6dmVyc2lvbj0iMC45Mi4zICgyNDA1NTQ2LCAyMDE4LTAzLTExKSIgc29kaXBvZGk6ZG9jbmFtZT0iZGV2aWNlX2Rlc2t0b3BfMS5zdmciIHg9IjBweCIgeT0iMHB4IiB2aWV3Qm94PSIwIDAgNjYuNzUgNDMuNjMiIHN0eWxlPSJlbmFibGUtYmFja2dyb3VuZDpuZXcgMCAwIDY2Ljc1IDQzLjYzOyIgeG1sOnNwYWNlPSJwcmVzZXJ2ZSI+JiN4YTs8c29kaXBvZGk6bmFtZWR2aWV3IGJvcmRlcmNvbG9yPSIjNjY2NjY2IiBib3JkZXJvcGFjaXR5PSIxIiBmaXQtbWFyZ2luLWJvdHRvbT0iMCIgZml0LW1hcmdpbi1sZWZ0PSIwIiBmaXQtbWFyZ2luLXJpZ2h0PSIwIiBmaXQtbWFyZ2luLXRvcD0iMCIgZ3JpZHRvbGVyYW5jZT0iMTAiIGd1aWRldG9sZXJhbmNlPSIxMCIgaWQ9Im5hbWVkdmlldzMxOTgiIGlua3NjYXBlOmN1cnJlbnQtbGF5ZXI9InN2ZzMxOTYiIGlua3NjYXBlOmN4PSI0NC41MDAwMTUiIGlua3NjYXBlOmN5PSIyOS4wNzk0NCIgaW5rc2NhcGU6cGFnZW9wYWNpdHk9IjAiIGlua3NjYXBlOnBhZ2VzaGFkb3c9IjIiIGlua3NjYXBlOndpbmRvdy1oZWlnaHQ9IjEwMTciIGlua3NjYXBlOndpbmRvdy1tYXhpbWl6ZWQ9IjEiIGlua3NjYXBlOndpbmRvdy13aWR0aD0iMTkyMCIgaW5rc2NhcGU6d2luZG93LXg9Ii04IiBpbmtzY2FwZTp3aW5kb3cteT0iLTgiIGlua3NjYXBlOnpvb209IjE0LjQxMDQxMiIgb2JqZWN0dG9sZXJhbmNlPSIxMCIgcGFnZWNvbG9yPSIjZmZmZmZmIiBzaG93Z3JpZD0iZmFsc2UiPiYjeGE7CTwvc29kaXBvZGk6bmFtZWR2aWV3PiYjeGE7PGcgaWQ9ImczMTk0IiB0cmFuc2Zvcm09InRyYW5zbGF0ZSgtMC43NSwtMC43NDYzNzkpIj4mI3hhOwk8dGl0bGUgaWQ9InRpdGxlMzE1OSI+UGFnZS0xPC90aXRsZT4mI3hhOwk8ZyBpZD0iZ3JvdXAzNTA5LTEiIHRyYW5zZm9ybT0idHJhbnNsYXRlKDAuNzUsLTAuNDAxMTIxKSI+JiN4YTsJCTx0aXRsZSBpZD0idGl0bGUzMTYxIj5EZXZpY2U6IERlc2t0b3AgIzE8L3RpdGxlPiYjeGE7CQk8ZyBpZD0ic2hhcGUzNTEwLTIiIHRyYW5zZm9ybT0idHJhbnNsYXRlKDEuNSwtOS4yODUpIj4mI3hhOwkJCTx0aXRsZSBpZD0idGl0bGUzMTYzIj5yZWN0MjM1MDwvdGl0bGU+JiN4YTsJCQk8cmVjdCBpZD0icmVjdDMxNjUiIHk9IjEwLjYyIiBzdHlsZT0iZmlsbDojNTVBNUU0OyIgd2lkdGg9IjYzIiBoZWlnaHQ9IjM0LjUiLz4mI3hhOwkJPC9nPiYjeGE7CQk8ZyBpZD0ic2hhcGUzNTExLTQiIHRyYW5zZm9ybT0idHJhbnNsYXRlKDQ1LjYzNzUsLTI1LjEwMjUpIj4mI3hhOwkJCTx0aXRsZSBpZD0idGl0bGUzMTY4Ij5wb2x5Z29uMjM1MjwvdGl0bGU+JiN4YTsJCQk8cGF0aCBpZD0icGF0aDMxNzAiIGlua3NjYXBlOmNvbm5lY3Rvci1jdXJ2YXR1cmU9IjAiIHN0eWxlPSJmaWxsOiNGRkZGRkY7ZmlsbC1vcGFjaXR5OjAuMjsiIGQ9Ik0wLDI2LjI1bDE4Ljg2LDE4Ljg3VjI2LjI1SDB6Ii8+JiN4YTsJCTwvZz4mI3hhOwkJPGcgaWQ9InNoYXBlMzUxMi02IiB0cmFuc2Zvcm09InRyYW5zbGF0ZSgxOS44NTI1LC0xLjIyMjUpIj4mI3hhOwkJCTx0aXRsZSBpZD0idGl0bGUzMTczIj5wb2x5Z29uMjM1NDwvdGl0bGU+JiN4YTsJCQk8cGF0aCBpZD0icGF0aDMxNzUiIGlua3NjYXBlOmNvbm5lY3Rvci1jdXJ2YXR1cmU9IjAiIHN0eWxlPSJmaWxsOiM1RTVFNUU7IiBkPSJNMS42LDQzLjYyaDI0LjAzbDEuNTksMS41SDBMMS42LDQzLjYyeiIvPiYjeGE7CQk8L2c+JiN4YTsJCTxnIGlkPSJzaGFwZTM1MTMtOCIgdHJhbnNmb3JtPSJ0cmFuc2xhdGUoMTkuODIyNSkiPiYjeGE7CQkJPHRpdGxlIGlkPSJ0aXRsZTMxNzgiPnBhdGgyMzU2PC90aXRsZT4mI3hhOwkJCTxwYXRoIGlkPSJwYXRoMzE4MCIgaW5rc2NhcGU6Y29ubmVjdG9yLWN1cnZhdHVyZT0iMCIgc3R5bGU9ImZpbGw6IzJFMkUyRTsiIGQ9Ik0yNi4xNyw0NC42NUgxLjE4QzAuMDIsNDUuMTIsMCw0NC4xLDAsNDMuOSAgICAgaDI3LjI4QzI3LjI1LDQ0LjEsMjcuNDMsNDUuMTIsMjYuMTcsNDQuNjV6Ii8+JiN4YTsJCTwvZz4mI3hhOwkJPGcgaWQ9InNoYXBlMzUxNC0xMCIgdHJhbnNmb3JtPSJ0cmFuc2xhdGUoMjcuNzUsLTEuOTcyNSkiPiYjeGE7CQkJPHRpdGxlIGlkPSJ0aXRsZTMxODMiPnBvbHlnb24yMzU4PC90aXRsZT4mI3hhOwkJCTxwYXRoIGlkPSJwYXRoMzE4NSIgaW5rc2NhcGU6Y29ubmVjdG9yLWN1cnZhdHVyZT0iMCIgc3R5bGU9ImZpbGw6IzJFMkUyRTsiIGQ9Ik0wLjkzLDM5Ljg3aDkuNTdsMC45Myw1LjI1SDBMMC45MywzOS44N3oiLz4mI3hhOwkJPC9nPiYjeGE7CQk8ZyBpZD0ic2hhcGUzNTE1LTEyIiB0cmFuc2Zvcm09InRyYW5zbGF0ZSgwLC03LjIyMjUpIj4mI3hhOwkJCTx0aXRsZSBpZD0idGl0bGUzMTg4Ij5wYXRoMjM2MDwvdGl0bGU+JiN4YTsJCQk8cGF0aCBpZD0icGF0aDMxOTAiIGlua3NjYXBlOmNvbm5lY3Rvci1jdXJ2YXR1cmU9IjAiIHN0eWxlPSJmaWxsOiMyMjFGMUY7IiBkPSJNNjUuMjUsOC4zN0gxLjVDMC42Nyw4LjM3LDAsOS4wNCwwLDkuODd2MzMuNzUgICAgIGMwLDAuODMsMC42NywxLjUsMS41LDEuNWg2My43NWMwLjgzLDAsMS41LTAuNjcsMS41LTEuNVY5Ljg3QzY2Ljc1LDkuMDQsNjYuMDgsOC4zNyw2NS4yNSw4LjM3eiBNNjQuNSw0Mi44N0gyLjI1VjEwLjYySDY0LjUgICAgIFY0Mi44N3oiLz4mI3hhOwkJPC9nPiYjeGE7CTwvZz4mI3hhOzwvZz4mI3hhOzwvc3ZnPg==;" parent="1" vertex="1">
          <mxGeometry x="61.5" y="115" width="67" height="44" as="geometry" />
        </mxCell>
        <mxCell id="T0ahu72QXb7B3IJqf_Je-3" style="edgeStyle=orthogonalEdgeStyle;rounded=0;orthogonalLoop=1;jettySize=auto;html=1;entryX=1.055;entryY=0.65;entryDx=0;entryDy=0;entryPerimeter=0;endArrow=classicThin;endFill=1;startArrow=none;startFill=1;exitX=0.48;exitY=1.067;exitDx=0;exitDy=0;exitPerimeter=0;strokeColor=#808080;strokeWidth=2;" parent="1" source="28heIlWIprtDJxRmpmQK-7" target="T0ahu72QXb7B3IJqf_Je-1" edge="1">
          <mxGeometry relative="1" as="geometry">
            <Array as="points">
              <mxPoint x="300" y="330" />
              <mxPoint x="430" y="330" />
              <mxPoint x="430" y="490" />
            </Array>
          </mxGeometry>
        </mxCell>
        <mxCell id="T0ahu72QXb7B3IJqf_Je-31" style="edgeStyle=orthogonalEdgeStyle;rounded=0;orthogonalLoop=1;jettySize=auto;html=1;fontColor=#99CCFF;startArrow=classicThin;startFill=1;endArrow=classicThin;endFill=1;strokeColor=#808080;strokeWidth=2;" parent="1" target="T0ahu72QXb7B3IJqf_Je-25" edge="1">
          <mxGeometry relative="1" as="geometry">
            <mxPoint x="380" y="240" as="sourcePoint" />
          </mxGeometry>
        </mxCell>
        <mxCell id="eWjkR0wsdmifyLcniZH0-5" value="Azure Active&lt;br&gt;Directory" style="aspect=fixed;html=1;perimeter=none;align=center;shadow=0;dashed=0;image;fontSize=12;image=img/lib/mscae/Active_Directory.svg;labelBackgroundColor=none;" parent="1" vertex="1">
          <mxGeometry x="355" y="243" width="50" height="50" as="geometry" />
        </mxCell>
        <mxCell id="rI1JX8pW7Fap40Gf1UJg-2" value="地端AD帳號同步至Azure AD&lt;br&gt;Azure AD同步帳至AADS" style="text;html=1;align=left;verticalAlign=top;spacingTop=-4;fontSize=14;labelBackgroundColor=none;whiteSpace=wrap;" parent="1" vertex="1">
          <mxGeometry x="774" y="102.5" width="296" height="47.5" as="geometry" />
        </mxCell>
        <mxCell id="rI1JX8pW7Fap40Gf1UJg-3" value="使用者經由gemalto進行MFA雙因子驗證&lt;br&gt;由OP人員負責啟用帳號,提供臨時性的AD登入密碼,由AP人員授權提供gemalto驗證碼" style="text;html=1;align=left;verticalAlign=top;spacingTop=-4;fontSize=14;labelBackgroundColor=none;whiteSpace=wrap;" parent="1" vertex="1">
          <mxGeometry x="774" y="148.5" width="316" height="61" as="geometry" />
        </mxCell>
        <mxCell id="rI1JX8pW7Fap40Gf1UJg-4" value="&lt;span&gt;驗證使用者合法權限&lt;/span&gt;" style="text;html=1;align=left;verticalAlign=top;spacingTop=-4;fontSize=14;labelBackgroundColor=none;whiteSpace=wrap;" parent="1" vertex="1">
          <mxGeometry x="774" y="215.88" width="296" height="44.12" as="geometry" />
        </mxCell>
        <mxCell id="rI1JX8pW7Fap40Gf1UJg-5" value="&lt;span&gt;透過跳版機IP-guard安控經VPN去存取地端T24沙盒環境&lt;/span&gt;" style="text;html=1;align=left;verticalAlign=top;spacingTop=-4;fontSize=14;labelBackgroundColor=none;whiteSpace=wrap;" parent="1" vertex="1">
          <mxGeometry x="774" y="263.88" width="296" height="46.12" as="geometry" />
        </mxCell>
        <mxCell id="rI1JX8pW7Fap40Gf1UJg-9" value="1" style="ellipse;whiteSpace=wrap;html=1;aspect=fixed;fillColor=#4D9900;strokeColor=none;labelBackgroundColor=none;" parent="1" vertex="1">
          <mxGeometry x="740" y="102.5" width="23" height="23" as="geometry" />
        </mxCell>
        <mxCell id="rI1JX8pW7Fap40Gf1UJg-10" value="2" style="ellipse;whiteSpace=wrap;html=1;aspect=fixed;fillColor=#4D9900;strokeColor=none;labelBackgroundColor=none;" parent="1" vertex="1">
          <mxGeometry x="740" y="154.88" width="23" height="23" as="geometry" />
        </mxCell>
        <mxCell id="rI1JX8pW7Fap40Gf1UJg-11" value="3" style="ellipse;whiteSpace=wrap;html=1;aspect=fixed;fillColor=#4D9900;strokeColor=none;labelBackgroundColor=none;" parent="1" vertex="1">
          <mxGeometry x="740" y="215.88" width="23" height="23" as="geometry" />
        </mxCell>
        <mxCell id="rI1JX8pW7Fap40Gf1UJg-12" value="4" style="ellipse;whiteSpace=wrap;html=1;aspect=fixed;fillColor=#4D9900;strokeColor=none;labelBackgroundColor=none;" parent="1" vertex="1">
          <mxGeometry x="739.9999999999995" y="267" width="23" height="23" as="geometry" />
        </mxCell>
        <mxCell id="T0ahu72QXb7B3IJqf_Je-1" value="On-Premise AD" style="sketch=0;aspect=fixed;pointerEvents=1;shadow=0;dashed=0;html=1;strokeColor=none;labelPosition=center;verticalLabelPosition=bottom;verticalAlign=top;align=center;fillColor=#00188D;shape=mxgraph.mscae.enterprise.ad_fs" parent="1" vertex="1">
          <mxGeometry x="280" y="457.5" width="40" height="50" as="geometry" />
        </mxCell>
        <mxCell id="28heIlWIprtDJxRmpmQK-7" value="1" style="ellipse;whiteSpace=wrap;html=1;aspect=fixed;fillColor=#4D9900;strokeColor=none;labelBackgroundColor=none;" parent="1" vertex="1">
          <mxGeometry x="288.5" y="287" width="23" height="23" as="geometry" />
        </mxCell>
        <mxCell id="T0ahu72QXb7B3IJqf_Je-5" value="" style="edgeStyle=orthogonalEdgeStyle;rounded=0;orthogonalLoop=1;jettySize=auto;html=1;entryX=0.5;entryY=0;entryDx=0;entryDy=0;entryPerimeter=0;endArrow=none;endFill=1;startArrow=classicThin;startFill=1;strokeColor=#808080;strokeWidth=2;" parent="1" target="28heIlWIprtDJxRmpmQK-7" edge="1">
          <mxGeometry relative="1" as="geometry">
            <mxPoint x="350" y="260" as="sourcePoint" />
            <mxPoint x="300" y="327.5" as="targetPoint" />
          </mxGeometry>
        </mxCell>
        <mxCell id="T0ahu72QXb7B3IJqf_Je-15" style="edgeStyle=orthogonalEdgeStyle;rounded=0;orthogonalLoop=1;jettySize=auto;html=1;startArrow=classic;startFill=1;endArrow=classicThin;endFill=1;strokeColor=#808080;strokeWidth=2;" parent="1" source="KFFGUHIh-ZLJzB-CHe2z-4" target="T0ahu72QXb7B3IJqf_Je-14" edge="1">
          <mxGeometry relative="1" as="geometry">
            <mxPoint x="530" y="270" as="sourcePoint" />
            <Array as="points">
              <mxPoint x="440" y="270" />
              <mxPoint x="440" y="490" />
            </Array>
          </mxGeometry>
        </mxCell>
        <mxCell id="KFFGUHIh-ZLJzB-CHe2z-14" style="edgeStyle=orthogonalEdgeStyle;rounded=0;orthogonalLoop=1;jettySize=auto;html=1;fontSize=14;fontColor=#1A1A1A;startArrow=none;startFill=1;endArrow=classicThin;endFill=1;strokeColor=#808080;strokeWidth=2;" parent="1" source="T0ahu72QXb7B3IJqf_Je-16" target="KFFGUHIh-ZLJzB-CHe2z-4" edge="1">
          <mxGeometry relative="1" as="geometry" />
        </mxCell>
        <mxCell id="T0ahu72QXb7B3IJqf_Je-9" value="Windows Virtual Desktop" style="sketch=0;points=[[0.015,0.015,0],[0.985,0.015,0],[0.985,0.985,0],[0.015,0.985,0],[0.25,0,0],[0.5,0,0],[0.75,0,0],[1,0.25,0],[1,0.5,0],[1,0.75,0],[0.75,1,0],[0.5,1,0],[0.25,1,0],[0,0.75,0],[0,0.5,0],[0,0.25,0]];verticalLabelPosition=bottom;html=1;verticalAlign=top;aspect=fixed;align=center;pointerEvents=1;shape=mxgraph.cisco19.rect;prIcon=virtual_desktop_service;fillColor=#FAFAFA;strokeColor=#005073;" parent="1" vertex="1">
          <mxGeometry x="543" y="112" width="61.44" height="48" as="geometry" />
        </mxCell>
        <mxCell id="T0ahu72QXb7B3IJqf_Je-14" value="T24" style="sketch=0;outlineConnect=0;fontColor=#232F3E;gradientColor=none;strokeColor=#ffffff;fillColor=#232F3E;dashed=0;verticalLabelPosition=middle;verticalAlign=bottom;align=center;html=1;whiteSpace=wrap;fontSize=10;fontStyle=1;spacing=3;shape=mxgraph.aws4.productIcon;prIcon=mxgraph.aws4.command_line_interface;" parent="1" vertex="1">
          <mxGeometry x="542" y="447.75" width="65" height="84.5" as="geometry" />
        </mxCell>
        <mxCell id="T0ahu72QXb7B3IJqf_Je-18" value="" style="shape=image;verticalLabelPosition=bottom;labelBackgroundColor=#ffffff;verticalAlign=top;aspect=fixed;imageAspect=0;image=data:image/svg+xml,PHN2ZyB4bWxuczpkYz0iaHR0cDovL3B1cmwub3JnL2RjL2VsZW1lbnRzLzEuMS8iIHhtbG5zOmNjPSJodHRwOi8vY3JlYXRpdmVjb21tb25zLm9yZy9ucyMiIHhtbG5zOnJkZj0iaHR0cDovL3d3dy53My5vcmcvMTk5OS8wMi8yMi1yZGYtc3ludGF4LW5zIyIgeG1sbnM6c3ZnPSJodHRwOi8vd3d3LnczLm9yZy8yMDAwL3N2ZyIgeG1sbnM9Imh0dHA6Ly93d3cudzMub3JnLzIwMDAvc3ZnIiB4bWxuczpzb2RpcG9kaT0iaHR0cDovL3NvZGlwb2RpLnNvdXJjZWZvcmdlLm5ldC9EVEQvc29kaXBvZGktMC5kdGQiIHhtbG5zOmlua3NjYXBlPSJodHRwOi8vd3d3Lmlua3NjYXBlLm9yZy9uYW1lc3BhY2VzL2lua3NjYXBlIiB2ZXJzaW9uPSIxLjEiIGlkPSJzdmc1MDMyOSIgaW5rc2NhcGU6dmVyc2lvbj0iMC45Mi4zICgyNDA1NTQ2LCAyMDE4LTAzLTExKSIgc29kaXBvZGk6ZG9jbmFtZT0iYXp1cmUuc3ZnIiB4PSIwcHgiIHk9IjBweCIgdmlld0JveD0iMCAwIDYyLjc2IDQ4LjQ4IiBzdHlsZT0iZW5hYmxlLWJhY2tncm91bmQ6bmV3IDAgMCA2Mi43NiA0OC40ODsiIHhtbDpzcGFjZT0icHJlc2VydmUiPjxtZXRhZGF0YSBpZD0ibWV0YWRhdGExNjgwNyI+PHJkZjpSREY+PGNjOldvcmsgcmRmOmFib3V0PSIiPjxkYzpmb3JtYXQ+aW1hZ2Uvc3ZnK3htbDwvZGM6Zm9ybWF0PjxkYzp0eXBlIHJkZjpyZXNvdXJjZT0iaHR0cDovL3B1cmwub3JnL2RjL2RjbWl0eXBlL1N0aWxsSW1hZ2UiLz48ZGM6dGl0bGUvPjwvY2M6V29yaz48L3JkZjpSREY+PC9tZXRhZGF0YT48ZGVmcyBpZD0iZGVmczE2ODA1Ii8+JiN4YTs8c29kaXBvZGk6bmFtZWR2aWV3IGJvcmRlcmNvbG9yPSIjNjY2NjY2IiBib3JkZXJvcGFjaXR5PSIxIiBmaXQtbWFyZ2luLWJvdHRvbT0iMCIgZml0LW1hcmdpbi1sZWZ0PSIwIiBmaXQtbWFyZ2luLXJpZ2h0PSIwIiBmaXQtbWFyZ2luLXRvcD0iMCIgZ3JpZHRvbGVyYW5jZT0iMTAiIGd1aWRldG9sZXJhbmNlPSIxMCIgaWQ9Im5hbWVkdmlldzUwMzMxIiBpbmtzY2FwZTpjdXJyZW50LWxheWVyPSJzdmc1MDMyOSIgaW5rc2NhcGU6Y3g9IjQ5LjM2MTQ4NiIgaW5rc2NhcGU6Y3k9IjEyLjA3MjQ5NyIgaW5rc2NhcGU6cGFnZW9wYWNpdHk9IjAiIGlua3NjYXBlOnBhZ2VzaGFkb3c9IjIiIGlua3NjYXBlOndpbmRvdy1oZWlnaHQ9IjEwMTciIGlua3NjYXBlOndpbmRvdy1tYXhpbWl6ZWQ9IjEiIGlua3NjYXBlOndpbmRvdy13aWR0aD0iMTkyMCIgaW5rc2NhcGU6d2luZG93LXg9Ii04IiBpbmtzY2FwZTp3aW5kb3cteT0iLTgiIGlua3NjYXBlOnpvb209IjUuOTY3MzU3NyIgb2JqZWN0dG9sZXJhbmNlPSIxMCIgcGFnZWNvbG9yPSIjZmZmZmZmIiBzaG93Z3JpZD0iZmFsc2UiPiYjeGE7CTwvc29kaXBvZGk6bmFtZWR2aWV3PiYjeGE7JiN4YTs8cGF0aCBpZD0icGF0aDUwMzI0IiBpbmtzY2FwZTpjb25uZWN0b3ItY3VydmF0dXJlPSIwIiBzdHlsZT0iZmlsbDojMjA3NUI4OyIgZD0iTTE1LjY4LDQ4LjM2YzAuMDctMC4wNyw2LjQtMS4yMywxNC4wNi0yLjU3ICBjNy42NS0xLjM1LDEzLjk3LTIuNSwxNC4wMy0yLjU2YzAuMTItMC4xMS0wLjc1LTEuMTctMTAuMjItMTIuNDZjLTIuNTItMi45OS00LjYzLTUuNTYtNC43LTUuN2MtMC4wOS0wLjE5LDAuODktMy4wNCwzLjczLTEwLjgzICBjMi4xMS01LjgxLDMuODctMTAuNjUsMy45MS0xMC43NWMwLjAzLTAuMDksMC4xMy0wLjE3LDAuMjItMC4xN2MwLjE5LDAsMjYuMTQsNDQuOTEsMjYuMDUsNDUuMDZjLTAuMDQsMC4wNi0xMC42OCwwLjEtMjMuNjQsMC4xICBDMjUuMjEsNDguNDgsMTUuNiw0OC40MywxNS42OCw0OC4zNnogTTAsNDMuMDFjLTAuMDUtMC4xMywwLjU0LTEuMjksMS40NS0yLjg4YzAuODQtMS40Niw0LjQyLTcuNjYsNy45NS0xMy43N2w2LjQxLTExLjFsOS4wOC03LjYzICBDMjkuODgsMy40NCwzNC4wNCwwLDM0LjEzLDBjMC4xLDAsMC4xMywwLjA5LDAuMDgsMC4yNEMzMy43NCwxLjQ4LDE0LjMsNDIuOTIsMTQuMTMsNDMuMDVjLTAuMTksMC4xMy0xLjg0LDAuMTctNy4xNSwwLjE3ICBDMC45MSw0My4yMiwwLjA3LDQzLjE5LDAsNDMuMDF6Ii8+JiN4YTs8L3N2Zz4=;" parent="1" vertex="1">
          <mxGeometry x="190" y="48.5" width="43" height="32.76" as="geometry" />
        </mxCell>
        <mxCell id="T0ahu72QXb7B3IJqf_Je-26" style="edgeStyle=orthogonalEdgeStyle;rounded=0;orthogonalLoop=1;jettySize=auto;html=1;entryX=0;entryY=0.5;entryDx=0;entryDy=0;entryPerimeter=0;fontColor=#99CCFF;startArrow=classicThin;startFill=1;endArrow=classicThin;endFill=1;strokeColor=#808080;strokeWidth=2;" parent="1" source="T0ahu72QXb7B3IJqf_Je-25" target="T0ahu72QXb7B3IJqf_Je-9" edge="1">
          <mxGeometry relative="1" as="geometry" />
        </mxCell>
        <mxCell id="T0ahu72QXb7B3IJqf_Je-25" value="Azure AD DS" style="aspect=fixed;html=1;points=[];align=center;image;fontSize=12;image=img/lib/azure2/identity/Azure_AD_Domain_Services.svg;fontColor=#1A1A1A;labelBackgroundColor=none;" parent="1" vertex="1">
          <mxGeometry x="350" y="109.20999999999998" width="60" height="54.86" as="geometry" />
        </mxCell>
        <mxCell id="28heIlWIprtDJxRmpmQK-16" value="2" style="ellipse;whiteSpace=wrap;html=1;aspect=fixed;fillColor=#4D9900;strokeColor=none;labelBackgroundColor=none;" parent="1" vertex="1">
          <mxGeometry x="240" y="125.5" width="23" height="23" as="geometry" />
        </mxCell>
        <mxCell id="T0ahu72QXb7B3IJqf_Je-30" value="" style="edgeStyle=orthogonalEdgeStyle;rounded=0;orthogonalLoop=1;jettySize=auto;html=1;fontColor=#99CCFF;startArrow=classicThin;startFill=1;endArrow=none;endFill=1;strokeColor=#808080;strokeWidth=2;" parent="1" source="eWjkR0wsdmifyLcniZH0-4" target="28heIlWIprtDJxRmpmQK-16" edge="1">
          <mxGeometry relative="1" as="geometry">
            <mxPoint x="128.5" y="144.5" as="sourcePoint" />
            <mxPoint x="350" y="144.58333333333348" as="targetPoint" />
          </mxGeometry>
        </mxCell>
        <mxCell id="KFFGUHIh-ZLJzB-CHe2z-1" value="AS-IS" style="text;html=1;strokeColor=#001DBC;fillColor=#0050ef;align=center;verticalAlign=middle;whiteSpace=wrap;rounded=0;fontColor=#ffffff;fontStyle=1;fontSize=14;" parent="1" vertex="1">
          <mxGeometry x="61.5" y="40" width="78.5" height="30" as="geometry" />
        </mxCell>
        <mxCell id="KFFGUHIh-ZLJzB-CHe2z-3" value="" style="fillColor=#999999;verticalLabelPosition=bottom;sketch=0;html=1;strokeColor=#ffffff;verticalAlign=top;align=center;points=[[0.145,0.145,0],[0.5,0,0],[0.855,0.145,0],[1,0.5,0],[0.855,0.855,0],[0.5,1,0],[0.145,0.855,0],[0,0.5,0]];pointerEvents=1;shape=mxgraph.cisco_safe.compositeIcon;bgIcon=ellipse;resIcon=mxgraph.cisco_safe.capability.host_context;labelBackgroundColor=none;fontSize=14;fontColor=#1A1A1A;" parent="1" vertex="1">
          <mxGeometry x="607" y="260" width="32.5" height="33" as="geometry" />
        </mxCell>
        <mxCell id="KFFGUHIh-ZLJzB-CHe2z-4" value="Bastion Host" style="sketch=0;aspect=fixed;html=1;points=[];align=center;image;fontSize=12;image=img/lib/mscae/VirtualMachineWindows.svg;labelBackgroundColor=none;fontColor=#1A1A1A;" parent="1" vertex="1">
          <mxGeometry x="549.5" y="255.5" width="50" height="46" as="geometry" />
        </mxCell>
        <mxCell id="28heIlWIprtDJxRmpmQK-17" value="3" style="ellipse;whiteSpace=wrap;html=1;aspect=fixed;fillColor=#4D9900;strokeColor=none;labelBackgroundColor=none;" parent="1" vertex="1">
          <mxGeometry x="460" y="125.5" width="23" height="23" as="geometry" />
        </mxCell>
        <mxCell id="KFFGUHIh-ZLJzB-CHe2z-12" value="S2S VPN" style="sketch=0;outlineConnect=0;fontColor=#232F3E;gradientColor=none;fillColor=#4D27AA;strokeColor=none;dashed=0;verticalLabelPosition=bottom;verticalAlign=top;align=center;html=1;fontSize=12;fontStyle=0;aspect=fixed;pointerEvents=1;shape=mxgraph.aws4.vpn_connection;labelBackgroundColor=none;" parent="1" vertex="1">
          <mxGeometry x="410" y="362.71000000000004" width="40.01" height="44.58" as="geometry" />
        </mxCell>
        <mxCell id="KFFGUHIh-ZLJzB-CHe2z-15" value="" style="edgeStyle=orthogonalEdgeStyle;rounded=0;orthogonalLoop=1;jettySize=auto;html=1;fontSize=14;fontColor=#1A1A1A;startArrow=classic;startFill=1;endArrow=none;endFill=1;strokeColor=#808080;strokeWidth=2;" parent="1" source="T0ahu72QXb7B3IJqf_Je-9" target="T0ahu72QXb7B3IJqf_Je-16" edge="1">
          <mxGeometry relative="1" as="geometry">
            <mxPoint x="573.7" y="160" as="sourcePoint" />
            <mxPoint x="574.5" y="255.5" as="targetPoint" />
          </mxGeometry>
        </mxCell>
        <mxCell id="T0ahu72QXb7B3IJqf_Je-16" value="4" style="ellipse;whiteSpace=wrap;html=1;aspect=fixed;fillColor=#4D9900;strokeColor=none;labelBackgroundColor=none;" parent="1" vertex="1">
          <mxGeometry x="562.2199999999996" y="203.5" width="23" height="23" as="geometry" />
        </mxCell>
        <mxCell id="KFFGUHIh-ZLJzB-CHe2z-17" value="" style="rounded=0;whiteSpace=wrap;html=1;fillColor=#EAEDED;fontSize=22;fontColor=#FFFFFF;strokeColor=none;labelBackgroundColor=none;" parent="1" vertex="1">
          <mxGeometry x="1040" y="316.26" width="445" height="255" as="geometry" />
        </mxCell>
        <mxCell id="KFFGUHIh-ZLJzB-CHe2z-21" value="" style="rounded=0;whiteSpace=wrap;html=1;fillColor=#f5f5f5;strokeColor=none;fontColor=#333333;labelBackgroundColor=none;" parent="1" vertex="1">
          <mxGeometry x="45" y="700" width="110" height="180" as="geometry" />
        </mxCell>
        <mxCell id="KFFGUHIh-ZLJzB-CHe2z-55" style="edgeStyle=orthogonalEdgeStyle;rounded=0;orthogonalLoop=1;jettySize=auto;html=1;fontSize=14;fontColor=#000000;startArrow=none;startFill=1;endArrow=classicThin;endFill=1;strokeColor=#808080;strokeWidth=2;" parent="1" source="KFFGUHIh-ZLJzB-CHe2z-36" edge="1">
          <mxGeometry relative="1" as="geometry">
            <mxPoint x="351.01" y="737.0999999999999" as="targetPoint" />
          </mxGeometry>
        </mxCell>
        <mxCell id="KFFGUHIh-ZLJzB-CHe2z-23" value="PC" style="shape=image;verticalLabelPosition=bottom;labelBackgroundColor=none;verticalAlign=top;aspect=fixed;imageAspect=0;image=data:image/svg+xml,PHN2ZyB4bWxuczpjYz0iaHR0cDovL2NyZWF0aXZlY29tbW9ucy5vcmcvbnMjIiB4bWxuczpkYz0iaHR0cDovL3B1cmwub3JnL2RjL2VsZW1lbnRzLzEuMS8iIHhtbG5zOmlua3NjYXBlPSJodHRwOi8vd3d3Lmlua3NjYXBlLm9yZy9uYW1lc3BhY2VzL2lua3NjYXBlIiB4bWxuczpyZGY9Imh0dHA6Ly93d3cudzMub3JnLzE5OTkvMDIvMjItcmRmLXN5bnRheC1ucyMiIHhtbG5zOnNvZGlwb2RpPSJodHRwOi8vc29kaXBvZGkuc291cmNlZm9yZ2UubmV0L0RURC9zb2RpcG9kaS0wLmR0ZCIgeG1sbnM6c3ZnPSJodHRwOi8vd3d3LnczLm9yZy8yMDAwL3N2ZyIgeG1sbnM9Imh0dHA6Ly93d3cudzMub3JnLzIwMDAvc3ZnIiB4bWxuczp4bGluaz0iaHR0cDovL3d3dy53My5vcmcvMTk5OS94bGluayIgdmVyc2lvbj0iMS4xIiBpZD0ic3ZnMzE5NiIgaW5rc2NhcGU6dmVyc2lvbj0iMC45Mi4zICgyNDA1NTQ2LCAyMDE4LTAzLTExKSIgc29kaXBvZGk6ZG9jbmFtZT0iZGV2aWNlX2Rlc2t0b3BfMS5zdmciIHg9IjBweCIgeT0iMHB4IiB2aWV3Qm94PSIwIDAgNjYuNzUgNDMuNjMiIHN0eWxlPSJlbmFibGUtYmFja2dyb3VuZDpuZXcgMCAwIDY2Ljc1IDQzLjYzOyIgeG1sOnNwYWNlPSJwcmVzZXJ2ZSI+JiN4YTs8c29kaXBvZGk6bmFtZWR2aWV3IGJvcmRlcmNvbG9yPSIjNjY2NjY2IiBib3JkZXJvcGFjaXR5PSIxIiBmaXQtbWFyZ2luLWJvdHRvbT0iMCIgZml0LW1hcmdpbi1sZWZ0PSIwIiBmaXQtbWFyZ2luLXJpZ2h0PSIwIiBmaXQtbWFyZ2luLXRvcD0iMCIgZ3JpZHRvbGVyYW5jZT0iMTAiIGd1aWRldG9sZXJhbmNlPSIxMCIgaWQ9Im5hbWVkdmlldzMxOTgiIGlua3NjYXBlOmN1cnJlbnQtbGF5ZXI9InN2ZzMxOTYiIGlua3NjYXBlOmN4PSI0NC41MDAwMTUiIGlua3NjYXBlOmN5PSIyOS4wNzk0NCIgaW5rc2NhcGU6cGFnZW9wYWNpdHk9IjAiIGlua3NjYXBlOnBhZ2VzaGFkb3c9IjIiIGlua3NjYXBlOndpbmRvdy1oZWlnaHQ9IjEwMTciIGlua3NjYXBlOndpbmRvdy1tYXhpbWl6ZWQ9IjEiIGlua3NjYXBlOndpbmRvdy13aWR0aD0iMTkyMCIgaW5rc2NhcGU6d2luZG93LXg9Ii04IiBpbmtzY2FwZTp3aW5kb3cteT0iLTgiIGlua3NjYXBlOnpvb209IjE0LjQxMDQxMiIgb2JqZWN0dG9sZXJhbmNlPSIxMCIgcGFnZWNvbG9yPSIjZmZmZmZmIiBzaG93Z3JpZD0iZmFsc2UiPiYjeGE7CTwvc29kaXBvZGk6bmFtZWR2aWV3PiYjeGE7PGcgaWQ9ImczMTk0IiB0cmFuc2Zvcm09InRyYW5zbGF0ZSgtMC43NSwtMC43NDYzNzkpIj4mI3hhOwk8dGl0bGUgaWQ9InRpdGxlMzE1OSI+UGFnZS0xPC90aXRsZT4mI3hhOwk8ZyBpZD0iZ3JvdXAzNTA5LTEiIHRyYW5zZm9ybT0idHJhbnNsYXRlKDAuNzUsLTAuNDAxMTIxKSI+JiN4YTsJCTx0aXRsZSBpZD0idGl0bGUzMTYxIj5EZXZpY2U6IERlc2t0b3AgIzE8L3RpdGxlPiYjeGE7CQk8ZyBpZD0ic2hhcGUzNTEwLTIiIHRyYW5zZm9ybT0idHJhbnNsYXRlKDEuNSwtOS4yODUpIj4mI3hhOwkJCTx0aXRsZSBpZD0idGl0bGUzMTYzIj5yZWN0MjM1MDwvdGl0bGU+JiN4YTsJCQk8cmVjdCBpZD0icmVjdDMxNjUiIHk9IjEwLjYyIiBzdHlsZT0iZmlsbDojNTVBNUU0OyIgd2lkdGg9IjYzIiBoZWlnaHQ9IjM0LjUiLz4mI3hhOwkJPC9nPiYjeGE7CQk8ZyBpZD0ic2hhcGUzNTExLTQiIHRyYW5zZm9ybT0idHJhbnNsYXRlKDQ1LjYzNzUsLTI1LjEwMjUpIj4mI3hhOwkJCTx0aXRsZSBpZD0idGl0bGUzMTY4Ij5wb2x5Z29uMjM1MjwvdGl0bGU+JiN4YTsJCQk8cGF0aCBpZD0icGF0aDMxNzAiIGlua3NjYXBlOmNvbm5lY3Rvci1jdXJ2YXR1cmU9IjAiIHN0eWxlPSJmaWxsOiNGRkZGRkY7ZmlsbC1vcGFjaXR5OjAuMjsiIGQ9Ik0wLDI2LjI1bDE4Ljg2LDE4Ljg3VjI2LjI1SDB6Ii8+JiN4YTsJCTwvZz4mI3hhOwkJPGcgaWQ9InNoYXBlMzUxMi02IiB0cmFuc2Zvcm09InRyYW5zbGF0ZSgxOS44NTI1LC0xLjIyMjUpIj4mI3hhOwkJCTx0aXRsZSBpZD0idGl0bGUzMTczIj5wb2x5Z29uMjM1NDwvdGl0bGU+JiN4YTsJCQk8cGF0aCBpZD0icGF0aDMxNzUiIGlua3NjYXBlOmNvbm5lY3Rvci1jdXJ2YXR1cmU9IjAiIHN0eWxlPSJmaWxsOiM1RTVFNUU7IiBkPSJNMS42LDQzLjYyaDI0LjAzbDEuNTksMS41SDBMMS42LDQzLjYyeiIvPiYjeGE7CQk8L2c+JiN4YTsJCTxnIGlkPSJzaGFwZTM1MTMtOCIgdHJhbnNmb3JtPSJ0cmFuc2xhdGUoMTkuODIyNSkiPiYjeGE7CQkJPHRpdGxlIGlkPSJ0aXRsZTMxNzgiPnBhdGgyMzU2PC90aXRsZT4mI3hhOwkJCTxwYXRoIGlkPSJwYXRoMzE4MCIgaW5rc2NhcGU6Y29ubmVjdG9yLWN1cnZhdHVyZT0iMCIgc3R5bGU9ImZpbGw6IzJFMkUyRTsiIGQ9Ik0yNi4xNyw0NC42NUgxLjE4QzAuMDIsNDUuMTIsMCw0NC4xLDAsNDMuOSAgICAgaDI3LjI4QzI3LjI1LDQ0LjEsMjcuNDMsNDUuMTIsMjYuMTcsNDQuNjV6Ii8+JiN4YTsJCTwvZz4mI3hhOwkJPGcgaWQ9InNoYXBlMzUxNC0xMCIgdHJhbnNmb3JtPSJ0cmFuc2xhdGUoMjcuNzUsLTEuOTcyNSkiPiYjeGE7CQkJPHRpdGxlIGlkPSJ0aXRsZTMxODMiPnBvbHlnb24yMzU4PC90aXRsZT4mI3hhOwkJCTxwYXRoIGlkPSJwYXRoMzE4NSIgaW5rc2NhcGU6Y29ubmVjdG9yLWN1cnZhdHVyZT0iMCIgc3R5bGU9ImZpbGw6IzJFMkUyRTsiIGQ9Ik0wLjkzLDM5Ljg3aDkuNTdsMC45Myw1LjI1SDBMMC45MywzOS44N3oiLz4mI3hhOwkJPC9nPiYjeGE7CQk8ZyBpZD0ic2hhcGUzNTE1LTEyIiB0cmFuc2Zvcm09InRyYW5zbGF0ZSgwLC03LjIyMjUpIj4mI3hhOwkJCTx0aXRsZSBpZD0idGl0bGUzMTg4Ij5wYXRoMjM2MDwvdGl0bGU+JiN4YTsJCQk8cGF0aCBpZD0icGF0aDMxOTAiIGlua3NjYXBlOmNvbm5lY3Rvci1jdXJ2YXR1cmU9IjAiIHN0eWxlPSJmaWxsOiMyMjFGMUY7IiBkPSJNNjUuMjUsOC4zN0gxLjVDMC42Nyw4LjM3LDAsOS4wNCwwLDkuODd2MzMuNzUgICAgIGMwLDAuODMsMC42NywxLjUsMS41LDEuNWg2My43NWMwLjgzLDAsMS41LTAuNjcsMS41LTEuNVY5Ljg3QzY2Ljc1LDkuMDQsNjYuMDgsOC4zNyw2NS4yNSw4LjM3eiBNNjQuNSw0Mi44N0gyLjI1VjEwLjYySDY0LjUgICAgIFY0Mi44N3oiLz4mI3hhOwkJPC9nPiYjeGE7CTwvZz4mI3hhOzwvZz4mI3hhOzwvc3ZnPg==;" parent="1" vertex="1">
          <mxGeometry x="66.5" y="715" width="67" height="44" as="geometry" />
        </mxCell>
        <mxCell id="KFFGUHIh-ZLJzB-CHe2z-28" value="負責大同委外廠商的AP人員開單給SP人員進行申請新建AAD帳號,然後登入Azure Portal 進行帳號初始化(含變更初始密碼並啟用MFA雙因子綁定);&lt;br&gt;提供給大同委外廠商人員AAD帳號密碼,待登入時需要MFA認證時,洽詢AP人員進行MFA雙因子授權" style="text;html=1;align=left;verticalAlign=top;spacingTop=-4;fontSize=14;labelBackgroundColor=none;whiteSpace=wrap;" parent="1" vertex="1">
          <mxGeometry x="1104" y="330" width="361" height="90" as="geometry" />
        </mxCell>
        <mxCell id="KFFGUHIh-ZLJzB-CHe2z-29" value="&lt;span&gt;驗證使用者合法權限&lt;/span&gt;" style="text;html=1;align=left;verticalAlign=top;spacingTop=-4;fontSize=14;labelBackgroundColor=none;whiteSpace=wrap;" parent="1" vertex="1">
          <mxGeometry x="1104" y="427" width="296" height="44.12" as="geometry" />
        </mxCell>
        <mxCell id="KFFGUHIh-ZLJzB-CHe2z-30" value="&lt;span style=&quot;font-size: 12pt ; font-family: &amp;#34;calibri&amp;#34;&quot;&gt;IP-guard&lt;/span&gt;&lt;span style=&quot;font-size: 12pt&quot;&gt;安控會進行側錄&lt;/span&gt;" style="text;html=1;align=left;verticalAlign=top;spacingTop=-4;fontSize=14;labelBackgroundColor=none;whiteSpace=wrap;" parent="1" vertex="1">
          <mxGeometry x="1104" y="480.88" width="321" height="46.12" as="geometry" />
        </mxCell>
        <mxCell id="KFFGUHIh-ZLJzB-CHe2z-31" value="1" style="ellipse;whiteSpace=wrap;html=1;aspect=fixed;fillColor=#4D9900;strokeColor=none;labelBackgroundColor=none;" parent="1" vertex="1">
          <mxGeometry x="1070" y="367.5" width="23" height="23" as="geometry" />
        </mxCell>
        <mxCell id="KFFGUHIh-ZLJzB-CHe2z-32" value="2" style="ellipse;whiteSpace=wrap;html=1;aspect=fixed;fillColor=#4D9900;strokeColor=none;labelBackgroundColor=none;" parent="1" vertex="1">
          <mxGeometry x="1070" y="427" width="23" height="23" as="geometry" />
        </mxCell>
        <mxCell id="KFFGUHIh-ZLJzB-CHe2z-33" value="3" style="ellipse;whiteSpace=wrap;html=1;aspect=fixed;fillColor=#4D9900;strokeColor=none;labelBackgroundColor=none;" parent="1" vertex="1">
          <mxGeometry x="1070" y="480.88" width="23" height="23" as="geometry" />
        </mxCell>
        <mxCell id="KFFGUHIh-ZLJzB-CHe2z-39" style="edgeStyle=orthogonalEdgeStyle;rounded=0;orthogonalLoop=1;jettySize=auto;html=1;fontSize=14;fontColor=#1A1A1A;startArrow=none;startFill=1;endArrow=classicThin;endFill=1;strokeColor=#808080;strokeWidth=2;" parent="1" source="KFFGUHIh-ZLJzB-CHe2z-53" edge="1">
          <mxGeometry relative="1" as="geometry">
            <mxPoint x="579.5" y="855.5" as="targetPoint" />
          </mxGeometry>
        </mxCell>
        <mxCell id="KFFGUHIh-ZLJzB-CHe2z-40" value="Azure Virtual Desktop" style="sketch=0;points=[[0.015,0.015,0],[0.985,0.015,0],[0.985,0.985,0],[0.015,0.985,0],[0.25,0,0],[0.5,0,0],[0.75,0,0],[1,0.25,0],[1,0.5,0],[1,0.75,0],[0.75,1,0],[0.5,1,0],[0.25,1,0],[0,0.75,0],[0,0.5,0],[0,0.25,0]];verticalLabelPosition=bottom;html=1;verticalAlign=top;aspect=fixed;align=center;pointerEvents=1;shape=mxgraph.cisco19.rect;prIcon=virtual_desktop_service;fillColor=#FAFAFA;strokeColor=#005073;" parent="1" vertex="1">
          <mxGeometry x="548" y="712" width="61.44" height="48" as="geometry" />
        </mxCell>
        <mxCell id="KFFGUHIh-ZLJzB-CHe2z-42" value="" style="shape=image;verticalLabelPosition=bottom;labelBackgroundColor=#ffffff;verticalAlign=top;aspect=fixed;imageAspect=0;image=data:image/svg+xml,PHN2ZyB4bWxuczpkYz0iaHR0cDovL3B1cmwub3JnL2RjL2VsZW1lbnRzLzEuMS8iIHhtbG5zOmNjPSJodHRwOi8vY3JlYXRpdmVjb21tb25zLm9yZy9ucyMiIHhtbG5zOnJkZj0iaHR0cDovL3d3dy53My5vcmcvMTk5OS8wMi8yMi1yZGYtc3ludGF4LW5zIyIgeG1sbnM6c3ZnPSJodHRwOi8vd3d3LnczLm9yZy8yMDAwL3N2ZyIgeG1sbnM9Imh0dHA6Ly93d3cudzMub3JnLzIwMDAvc3ZnIiB4bWxuczpzb2RpcG9kaT0iaHR0cDovL3NvZGlwb2RpLnNvdXJjZWZvcmdlLm5ldC9EVEQvc29kaXBvZGktMC5kdGQiIHhtbG5zOmlua3NjYXBlPSJodHRwOi8vd3d3Lmlua3NjYXBlLm9yZy9uYW1lc3BhY2VzL2lua3NjYXBlIiB2ZXJzaW9uPSIxLjEiIGlkPSJzdmc1MDMyOSIgaW5rc2NhcGU6dmVyc2lvbj0iMC45Mi4zICgyNDA1NTQ2LCAyMDE4LTAzLTExKSIgc29kaXBvZGk6ZG9jbmFtZT0iYXp1cmUuc3ZnIiB4PSIwcHgiIHk9IjBweCIgdmlld0JveD0iMCAwIDYyLjc2IDQ4LjQ4IiBzdHlsZT0iZW5hYmxlLWJhY2tncm91bmQ6bmV3IDAgMCA2Mi43NiA0OC40ODsiIHhtbDpzcGFjZT0icHJlc2VydmUiPjxtZXRhZGF0YSBpZD0ibWV0YWRhdGExNjgwNyI+PHJkZjpSREY+PGNjOldvcmsgcmRmOmFib3V0PSIiPjxkYzpmb3JtYXQ+aW1hZ2Uvc3ZnK3htbDwvZGM6Zm9ybWF0PjxkYzp0eXBlIHJkZjpyZXNvdXJjZT0iaHR0cDovL3B1cmwub3JnL2RjL2RjbWl0eXBlL1N0aWxsSW1hZ2UiLz48ZGM6dGl0bGUvPjwvY2M6V29yaz48L3JkZjpSREY+PC9tZXRhZGF0YT48ZGVmcyBpZD0iZGVmczE2ODA1Ii8+JiN4YTs8c29kaXBvZGk6bmFtZWR2aWV3IGJvcmRlcmNvbG9yPSIjNjY2NjY2IiBib3JkZXJvcGFjaXR5PSIxIiBmaXQtbWFyZ2luLWJvdHRvbT0iMCIgZml0LW1hcmdpbi1sZWZ0PSIwIiBmaXQtbWFyZ2luLXJpZ2h0PSIwIiBmaXQtbWFyZ2luLXRvcD0iMCIgZ3JpZHRvbGVyYW5jZT0iMTAiIGd1aWRldG9sZXJhbmNlPSIxMCIgaWQ9Im5hbWVkdmlldzUwMzMxIiBpbmtzY2FwZTpjdXJyZW50LWxheWVyPSJzdmc1MDMyOSIgaW5rc2NhcGU6Y3g9IjQ5LjM2MTQ4NiIgaW5rc2NhcGU6Y3k9IjEyLjA3MjQ5NyIgaW5rc2NhcGU6cGFnZW9wYWNpdHk9IjAiIGlua3NjYXBlOnBhZ2VzaGFkb3c9IjIiIGlua3NjYXBlOndpbmRvdy1oZWlnaHQ9IjEwMTciIGlua3NjYXBlOndpbmRvdy1tYXhpbWl6ZWQ9IjEiIGlua3NjYXBlOndpbmRvdy13aWR0aD0iMTkyMCIgaW5rc2NhcGU6d2luZG93LXg9Ii04IiBpbmtzY2FwZTp3aW5kb3cteT0iLTgiIGlua3NjYXBlOnpvb209IjUuOTY3MzU3NyIgb2JqZWN0dG9sZXJhbmNlPSIxMCIgcGFnZWNvbG9yPSIjZmZmZmZmIiBzaG93Z3JpZD0iZmFsc2UiPiYjeGE7CTwvc29kaXBvZGk6bmFtZWR2aWV3PiYjeGE7JiN4YTs8cGF0aCBpZD0icGF0aDUwMzI0IiBpbmtzY2FwZTpjb25uZWN0b3ItY3VydmF0dXJlPSIwIiBzdHlsZT0iZmlsbDojMjA3NUI4OyIgZD0iTTE1LjY4LDQ4LjM2YzAuMDctMC4wNyw2LjQtMS4yMywxNC4wNi0yLjU3ICBjNy42NS0xLjM1LDEzLjk3LTIuNSwxNC4wMy0yLjU2YzAuMTItMC4xMS0wLjc1LTEuMTctMTAuMjItMTIuNDZjLTIuNTItMi45OS00LjYzLTUuNTYtNC43LTUuN2MtMC4wOS0wLjE5LDAuODktMy4wNCwzLjczLTEwLjgzICBjMi4xMS01LjgxLDMuODctMTAuNjUsMy45MS0xMC43NWMwLjAzLTAuMDksMC4xMy0wLjE3LDAuMjItMC4xN2MwLjE5LDAsMjYuMTQsNDQuOTEsMjYuMDUsNDUuMDZjLTAuMDQsMC4wNi0xMC42OCwwLjEtMjMuNjQsMC4xICBDMjUuMjEsNDguNDgsMTUuNiw0OC40MywxNS42OCw0OC4zNnogTTAsNDMuMDFjLTAuMDUtMC4xMywwLjU0LTEuMjksMS40NS0yLjg4YzAuODQtMS40Niw0LjQyLTcuNjYsNy45NS0xMy43N2w2LjQxLTExLjFsOS4wOC03LjYzICBDMjkuODgsMy40NCwzNC4wNCwwLDM0LjEzLDBjMC4xLDAsMC4xMywwLjA5LDAuMDgsMC4yNEMzMy43NCwxLjQ4LDE0LjMsNDIuOTIsMTQuMTMsNDMuMDVjLTAuMTksMC4xMy0xLjg0LDAuMTctNy4xNSwwLjE3ICBDMC45MSw0My4yMiwwLjA3LDQzLjE5LDAsNDMuMDF6Ii8+JiN4YTs8L3N2Zz4=;" parent="1" vertex="1">
          <mxGeometry x="197" y="640" width="43" height="32.76" as="geometry" />
        </mxCell>
        <mxCell id="KFFGUHIh-ZLJzB-CHe2z-43" style="edgeStyle=orthogonalEdgeStyle;rounded=0;orthogonalLoop=1;jettySize=auto;html=1;entryX=0;entryY=0.5;entryDx=0;entryDy=0;entryPerimeter=0;fontColor=#99CCFF;startArrow=classicThin;startFill=1;endArrow=classicThin;endFill=1;strokeColor=#808080;strokeWidth=2;" parent="1" target="KFFGUHIh-ZLJzB-CHe2z-40" edge="1">
          <mxGeometry relative="1" as="geometry">
            <mxPoint x="415" y="736.7" as="sourcePoint" />
          </mxGeometry>
        </mxCell>
        <mxCell id="KFFGUHIh-ZLJzB-CHe2z-47" value="TO-BE (B)" style="text;html=1;strokeColor=#2D7600;fillColor=#60a917;align=center;verticalAlign=middle;whiteSpace=wrap;rounded=0;fontColor=#000000;fontStyle=1;fontSize=14;" parent="1" vertex="1">
          <mxGeometry x="66.5" y="640" width="78.5" height="30" as="geometry" />
        </mxCell>
        <mxCell id="KFFGUHIh-ZLJzB-CHe2z-48" value="" style="fillColor=#999999;verticalLabelPosition=bottom;sketch=0;html=1;strokeColor=#ffffff;verticalAlign=top;align=center;points=[[0.145,0.145,0],[0.5,0,0],[0.855,0.145,0],[1,0.5,0],[0.855,0.855,0],[0.5,1,0],[0.145,0.855,0],[0,0.5,0]];pointerEvents=1;shape=mxgraph.cisco_safe.compositeIcon;bgIcon=ellipse;resIcon=mxgraph.cisco_safe.capability.host_context;labelBackgroundColor=none;fontSize=14;fontColor=#1A1A1A;" parent="1" vertex="1">
          <mxGeometry x="607" y="862" width="32.5" height="33" as="geometry" />
        </mxCell>
        <mxCell id="KFFGUHIh-ZLJzB-CHe2z-50" value="2" style="ellipse;whiteSpace=wrap;html=1;aspect=fixed;fillColor=#4D9900;strokeColor=none;labelBackgroundColor=none;" parent="1" vertex="1">
          <mxGeometry x="465" y="725.5" width="23" height="23" as="geometry" />
        </mxCell>
        <mxCell id="KFFGUHIh-ZLJzB-CHe2z-52" value="" style="edgeStyle=orthogonalEdgeStyle;rounded=0;orthogonalLoop=1;jettySize=auto;html=1;fontSize=14;fontColor=#1A1A1A;startArrow=classic;startFill=1;endArrow=none;endFill=1;strokeColor=#808080;strokeWidth=2;" parent="1" source="KFFGUHIh-ZLJzB-CHe2z-40" target="KFFGUHIh-ZLJzB-CHe2z-53" edge="1">
          <mxGeometry relative="1" as="geometry">
            <mxPoint x="578.7" y="760" as="sourcePoint" />
            <mxPoint x="579.5" y="855.5" as="targetPoint" />
          </mxGeometry>
        </mxCell>
        <mxCell id="KFFGUHIh-ZLJzB-CHe2z-53" value="3" style="ellipse;whiteSpace=wrap;html=1;aspect=fixed;fillColor=#4D9900;strokeColor=none;labelBackgroundColor=none;" parent="1" vertex="1">
          <mxGeometry x="567.2199999999996" y="803.5" width="23" height="23" as="geometry" />
        </mxCell>
        <mxCell id="KFFGUHIh-ZLJzB-CHe2z-36" value="1" style="ellipse;whiteSpace=wrap;html=1;aspect=fixed;fillColor=#4D9900;strokeColor=none;labelBackgroundColor=none;" parent="1" vertex="1">
          <mxGeometry x="257" y="725.5" width="23" height="23" as="geometry" />
        </mxCell>
        <mxCell id="KFFGUHIh-ZLJzB-CHe2z-59" value="" style="edgeStyle=orthogonalEdgeStyle;rounded=0;orthogonalLoop=1;jettySize=auto;html=1;entryX=-0.08;entryY=0.5;entryDx=0;entryDy=0;entryPerimeter=0;fontSize=14;fontColor=#000000;startArrow=classic;startFill=1;endArrow=none;endFill=1;strokeColor=#808080;strokeWidth=2;" parent="1" source="KFFGUHIh-ZLJzB-CHe2z-23" target="KFFGUHIh-ZLJzB-CHe2z-36" edge="1">
          <mxGeometry relative="1" as="geometry">
            <mxPoint x="133.5" y="737" as="sourcePoint" />
            <mxPoint x="360" y="737" as="targetPoint" />
          </mxGeometry>
        </mxCell>
        <mxCell id="KFFGUHIh-ZLJzB-CHe2z-60" value="T24" style="sketch=0;outlineConnect=0;fontColor=#232F3E;gradientColor=none;strokeColor=#ffffff;fillColor=#232F3E;dashed=0;verticalLabelPosition=middle;verticalAlign=bottom;align=center;html=1;whiteSpace=wrap;fontSize=10;fontStyle=1;spacing=3;shape=mxgraph.aws4.productIcon;prIcon=mxgraph.aws4.command_line_interface;" parent="1" vertex="1">
          <mxGeometry x="554.44" y="852.73" width="50" height="67.27" as="geometry" />
        </mxCell>
        <mxCell id="KFFGUHIh-ZLJzB-CHe2z-61" value="MFA" style="verticalLabelPosition=bottom;html=1;verticalAlign=top;align=center;strokeColor=none;fillColor=#00BEF2;shape=mxgraph.azure.multi_factor_authentication;pointerEvents=1;labelBackgroundColor=none;fontSize=14;fontColor=#000000;" parent="1" vertex="1">
          <mxGeometry x="88.25" y="802.38" width="25" height="50" as="geometry" />
        </mxCell>
        <mxCell id="KFFGUHIh-ZLJzB-CHe2z-68" style="edgeStyle=orthogonalEdgeStyle;rounded=0;orthogonalLoop=1;jettySize=auto;html=1;fontSize=14;fontColor=#000000;startArrow=none;startFill=1;endArrow=classicThin;endFill=1;strokeColor=#808080;strokeWidth=2;" parent="1" source="KFFGUHIh-ZLJzB-CHe2z-71" target="KFFGUHIh-ZLJzB-CHe2z-67" edge="1">
          <mxGeometry relative="1" as="geometry" />
        </mxCell>
        <mxCell id="KFFGUHIh-ZLJzB-CHe2z-62" value="AMMP" style="verticalLabelPosition=bottom;html=1;verticalAlign=top;align=center;strokeColor=none;fillColor=#00BEF2;shape=mxgraph.azure.backup_service;labelBackgroundColor=none;fontSize=14;fontColor=#000000;" parent="1" vertex="1">
          <mxGeometry x="499.5" y="1040" width="50" height="45" as="geometry" />
        </mxCell>
        <mxCell id="KFFGUHIh-ZLJzB-CHe2z-69" style="edgeStyle=orthogonalEdgeStyle;rounded=0;orthogonalLoop=1;jettySize=auto;html=1;fontSize=14;fontColor=#000000;startArrow=classic;startFill=1;endArrow=classicThin;endFill=1;strokeColor=#808080;strokeWidth=2;" parent="1" source="KFFGUHIh-ZLJzB-CHe2z-67" target="KFFGUHIh-ZLJzB-CHe2z-60" edge="1">
          <mxGeometry relative="1" as="geometry">
            <Array as="points">
              <mxPoint x="440" y="890" />
            </Array>
          </mxGeometry>
        </mxCell>
        <mxCell id="KFFGUHIh-ZLJzB-CHe2z-67" value="S2S VPN" style="sketch=0;outlineConnect=0;fontColor=#232F3E;gradientColor=none;fillColor=#4D27AA;strokeColor=none;dashed=0;verticalLabelPosition=bottom;verticalAlign=top;align=center;html=1;fontSize=12;fontStyle=0;aspect=fixed;pointerEvents=1;shape=mxgraph.aws4.vpn_connection;labelBackgroundColor=none;" parent="1" vertex="1">
          <mxGeometry x="419.99" y="950" width="40.01" height="44.58" as="geometry" />
        </mxCell>
        <mxCell id="KFFGUHIh-ZLJzB-CHe2z-70" value="4" style="ellipse;whiteSpace=wrap;html=1;aspect=fixed;fillColor=#4D9900;strokeColor=none;labelBackgroundColor=none;" parent="1" vertex="1">
          <mxGeometry x="1070" y="527" width="23" height="23" as="geometry" />
        </mxCell>
        <mxCell id="KFFGUHIh-ZLJzB-CHe2z-72" value="" style="edgeStyle=orthogonalEdgeStyle;rounded=0;orthogonalLoop=1;jettySize=auto;html=1;fontSize=14;fontColor=#000000;startArrow=classic;startFill=1;endArrow=none;endFill=1;strokeColor=#808080;strokeWidth=2;" parent="1" source="KFFGUHIh-ZLJzB-CHe2z-62" target="KFFGUHIh-ZLJzB-CHe2z-71" edge="1">
          <mxGeometry relative="1" as="geometry">
            <mxPoint x="492" y="1062.5" as="sourcePoint" />
            <mxPoint x="440" y="994.5290609137055" as="targetPoint" />
          </mxGeometry>
        </mxCell>
        <mxCell id="KFFGUHIh-ZLJzB-CHe2z-71" value="4" style="ellipse;whiteSpace=wrap;html=1;aspect=fixed;fillColor=#4D9900;strokeColor=none;labelBackgroundColor=none;" parent="1" vertex="1">
          <mxGeometry x="428.5" y="1051" width="23" height="23" as="geometry" />
        </mxCell>
        <mxCell id="KFFGUHIh-ZLJzB-CHe2z-73" value="透過RemoteAPP進行桌面雲登入及操作" style="text;html=1;align=left;verticalAlign=top;spacingTop=-4;fontSize=14;labelBackgroundColor=none;whiteSpace=wrap;" parent="1" vertex="1">
          <mxGeometry x="1104" y="525" width="366" height="45" as="geometry" />
        </mxCell>
        <mxCell id="RUdyyS04vA0CPSo_Z_gt-3" value="Hub Virtual Network" style="text;html=1;strokeColor=none;fillColor=none;align=center;verticalAlign=middle;whiteSpace=wrap;rounded=0;dashed=1;" parent="1" vertex="1">
          <mxGeometry x="322.01" y="677.29" width="128" height="22.71" as="geometry" />
        </mxCell>
        <mxCell id="RUdyyS04vA0CPSo_Z_gt-5" value="Spoke Virtual Network" style="text;html=1;strokeColor=none;fillColor=none;align=center;verticalAlign=middle;whiteSpace=wrap;rounded=0;dashed=1;" parent="1" vertex="1">
          <mxGeometry x="513.58" y="677.2899999999998" width="128" height="22.71" as="geometry" />
        </mxCell>
        <mxCell id="RUdyyS04vA0CPSo_Z_gt-10" value="T24" style="sketch=0;outlineConnect=0;fontColor=#232F3E;gradientColor=none;strokeColor=#ffffff;fillColor=#232F3E;dashed=0;verticalLabelPosition=middle;verticalAlign=bottom;align=center;html=1;whiteSpace=wrap;fontSize=10;fontStyle=1;spacing=3;shape=mxgraph.aws4.productIcon;prIcon=mxgraph.aws4.command_line_interface;" parent="1" vertex="1">
          <mxGeometry x="554.44" y="1040" width="50" height="67.27" as="geometry" />
        </mxCell>
        <mxCell id="RUdyyS04vA0CPSo_Z_gt-14" value="10.7.24.0/24" style="group" parent="1" vertex="1" connectable="0">
          <mxGeometry x="1318.58" y="690" width="130.28" height="240" as="geometry" />
        </mxCell>
        <mxCell id="RUdyyS04vA0CPSo_Z_gt-15" value="" style="verticalLabelPosition=bottom;html=1;verticalAlign=top;align=center;strokeColor=none;fillColor=#00BEF2;shape=mxgraph.azure.virtual_network;pointerEvents=1;" parent="RUdyyS04vA0CPSo_Z_gt-14" vertex="1">
          <mxGeometry x="103.13833333333334" y="214.9176986988556" width="27.141666666666666" height="25.08230130114439" as="geometry" />
        </mxCell>
        <mxCell id="RUdyyS04vA0CPSo_Z_gt-16" value="" style="rounded=0;whiteSpace=wrap;html=1;fillColor=none;strokeColor=#7EA6E0;fontColor=#333333;labelBackgroundColor=none;dashed=1;strokeWidth=2;" parent="RUdyyS04vA0CPSo_Z_gt-14" vertex="1">
          <mxGeometry width="130.28" height="240.00000000000017" as="geometry" />
        </mxCell>
        <mxCell id="RUdyyS04vA0CPSo_Z_gt-17" value="" style="shape=image;verticalLabelPosition=bottom;labelBackgroundColor=#ffffff;verticalAlign=top;aspect=fixed;imageAspect=0;image=data:image/svg+xml,PHN2ZyB4bWxuczpjYz0iaHR0cDovL2NyZWF0aXZlY29tbW9ucy5vcmcvbnMjIiB4bWxuczpkYz0iaHR0cDovL3B1cmwub3JnL2RjL2VsZW1lbnRzLzEuMS8iIHhtbG5zOmlua3NjYXBlPSJodHRwOi8vd3d3Lmlua3NjYXBlLm9yZy9uYW1lc3BhY2VzL2lua3NjYXBlIiB4bWxuczpyZGY9Imh0dHA6Ly93d3cudzMub3JnLzE5OTkvMDIvMjItcmRmLXN5bnRheC1ucyMiIHhtbG5zOnNvZGlwb2RpPSJodHRwOi8vc29kaXBvZGkuc291cmNlZm9yZ2UubmV0L0RURC9zb2RpcG9kaS0wLmR0ZCIgeG1sbnM6c3ZnPSJodHRwOi8vd3d3LnczLm9yZy8yMDAwL3N2ZyIgeG1sbnM9Imh0dHA6Ly93d3cudzMub3JnLzIwMDAvc3ZnIiB4bWxuczp4bGluaz0iaHR0cDovL3d3dy53My5vcmcvMTk5OS94bGluayIgdmVyc2lvbj0iMS4xIiBpZD0ic3ZnODc3MDAiIGlua3NjYXBlOnZlcnNpb249IjAuOTIuMyAoMjQwNTU0NiwgMjAxOC0wMy0xMSkiIHNvZGlwb2RpOmRvY25hbWU9Im5ldHdvcmtfc2VjdXJpdHlfZ3JvdXAuc3ZnIiB4PSIwcHgiIHk9IjBweCIgdmlld0JveD0iMCAwIDIyLjgzIDMxLjEyIiBzdHlsZT0iZW5hYmxlLWJhY2tncm91bmQ6bmV3IDAgMCAyMi44MyAzMS4xMjsiIHhtbDpzcGFjZT0icHJlc2VydmUiPiYjeGE7PHNvZGlwb2RpOm5hbWVkdmlldyBib3JkZXJjb2xvcj0iIzY2NjY2NiIgYm9yZGVyb3BhY2l0eT0iMSIgZml0LW1hcmdpbi1ib3R0b209IjAiIGZpdC1tYXJnaW4tbGVmdD0iMCIgZml0LW1hcmdpbi1yaWdodD0iMCIgZml0LW1hcmdpbi10b3A9IjAiIGdyaWR0b2xlcmFuY2U9IjEwIiBndWlkZXRvbGVyYW5jZT0iMTAiIGlkPSJuYW1lZHZpZXc4NzcwMiIgaW5rc2NhcGU6Y3VycmVudC1sYXllcj0ic3ZnODc3MDAiIGlua3NjYXBlOmN4PSI3Ljc4MzU0ODIiIGlua3NjYXBlOmN5PSIxNi4yMjc2MjMiIGlua3NjYXBlOnBhZ2VvcGFjaXR5PSIwIiBpbmtzY2FwZTpwYWdlc2hhZG93PSIyIiBpbmtzY2FwZTp3aW5kb3ctaGVpZ2h0PSIxMDE3IiBpbmtzY2FwZTp3aW5kb3ctbWF4aW1pemVkPSIxIiBpbmtzY2FwZTp3aW5kb3ctd2lkdGg9IjE5MjAiIGlua3NjYXBlOndpbmRvdy14PSItOCIgaW5rc2NhcGU6d2luZG93LXk9Ii04IiBpbmtzY2FwZTp6b29tPSIxNC4wOTU3MzQiIG9iamVjdHRvbGVyYW5jZT0iMTAiIHBhZ2Vjb2xvcj0iI2ZmZmZmZiIgc2hvd2dyaWQ9ImZhbHNlIj4mI3hhOwk8L3NvZGlwb2RpOm5hbWVkdmlldz4mI3hhOzxnIGlkPSJnODc2OTgiIHRyYW5zZm9ybT0idHJhbnNsYXRlKC0wLjc1LC0wLjc1KSI+JiN4YTsJPHRpdGxlIGlkPSJ0aXRsZTg3NjQyIj5QYWdlLTE8L3RpdGxlPiYjeGE7CTxnIGlkPSJncm91cDU2NjktMSIgdHJhbnNmb3JtPSJ0cmFuc2xhdGUoMC43NSwtMC43NSkiPiYjeGE7CQk8dGl0bGUgaWQ9InRpdGxlODc2NDQiPk5ldHdvcmsgU2VjdXJpdHkgR3JvdXA8L3RpdGxlPiYjeGE7CQk8ZyBpZD0ic2hhcGU1NjcwLTIiPiYjeGE7CQkJPHRpdGxlIGlkPSJ0aXRsZTg3NjQ2Ij5TaGVldC41NjcwPC90aXRsZT4mI3hhOwkJCTxwYXRoIGlkPSJwYXRoODc2NDgiIGlua3NjYXBlOmNvbm5lY3Rvci1jdXJ2YXR1cmU9IjAiIHN0eWxlPSJmaWxsOiMzOTk5QzY7IiBkPSJNMTkuNDYsNS4yNEMxMi42LDQuNDksMTEuNDEsMS41LDExLjQxLDEuNSAgICAgUzkuODUsNS4zNywwLDUuMzd2MTUuOTZjMCwxLjkzLDEuMDYsMy43NCwyLjU2LDUuM2MzLjM2LDMuNTYsOC44NSw1Ljk5LDguODUsNS45OXMxMS40Mi00Ljk5LDExLjQyLTExLjI5VjUuMzcgICAgIEMyMS41OCw1LjM3LDIwLjQ2LDUuMywxOS40Niw1LjI0eiIvPiYjeGE7CQk8L2c+JiN4YTsJCTxnIGlkPSJzaGFwZTU2NzEtNCIgdHJhbnNmb3JtPSJ0cmFuc2xhdGUoMCwtNS45ODY5MikiPiYjeGE7CQkJPHRpdGxlIGlkPSJ0aXRsZTg3NjUxIj5TaGVldC41NjcxPC90aXRsZT4mI3hhOwkJCTxwYXRoIGlkPSJwYXRoODc2NTMiIGlua3NjYXBlOmNvbm5lY3Rvci1jdXJ2YXR1cmU9IjAiIHN0eWxlPSJmaWxsOiM1OUI0RDk7ZmlsbC1vcGFjaXR5OjAuNDsiIGQ9Ik0xNC4yOCwxNy43OGw1LjE4LTYuNTUgICAgIGMtNi44Ni0wLjc1LTguMDUtMy43NC04LjA1LTMuNzRTOS44NSwxMS4zNSwwLDExLjM1djE1Ljk3YzAsMS45MywxLjA2LDMuNzQsMi41Niw1LjNsMy44Ni00Ljg2TDE0LjI4LDE3Ljc4eiIvPiYjeGE7CQk8L2c+JiN4YTsJCTxnIGlkPSJncm91cDU2NzItNiIgdHJhbnNmb3JtPSJ0cmFuc2xhdGUoMi4zMDc0NiwtMy4xMTgxOSkiPiYjeGE7CQkJPHRpdGxlIGlkPSJ0aXRsZTg3NjU2Ij5TaGVldC41NjcyPC90aXRsZT4mI3hhOwkJCTxnIGlkPSJzaGFwZTU2NzMtNyIgdHJhbnNmb3JtPSJ0cmFuc2xhdGUoMC4wNjIzNjM3KSI+JiN4YTsJCQkJPHRpdGxlIGlkPSJ0aXRsZTg3NjU4Ij5TaGVldC41NjczPC90aXRsZT4mI3hhOwkJCQk8cGF0aCBpZD0icGF0aDg3NjYwIiBpbmtzY2FwZTpjb25uZWN0b3ItY3VydmF0dXJlPSIwIiBzdHlsZT0iZmlsbDojRkZGRkZGO2ZpbGwtb3BhY2l0eTowLjM7IiBkPSJNMCwxOS44M3YzLjgxICAgICAgYzAsMS41NiwwLjg3LDIuOTksMi4wNiw0LjI0YzIuNjgsMi44Nyw3LjA1LDQuNzQsNy4wNSw0Ljc0VjE5LjgzSDB6Ii8+JiN4YTsJCQk8L2c+JiN4YTsJCQk8ZyBpZD0ic2hhcGU1Njc0LTkiIHRyYW5zZm9ybT0idHJhbnNsYXRlKDkuMTA1MSkiPiYjeGE7CQkJCTx0aXRsZSBpZD0idGl0bGU4NzY2MyI+U2hlZXQuNTY3NDwvdGl0bGU+JiN4YTsJCQkJPHBhdGggaWQ9InBhdGg4NzY2NSIgaW5rc2NhcGU6Y29ubmVjdG9yLWN1cnZhdHVyZT0iMCIgc3R5bGU9ImZpbGw6I0ZGRkZGRjtmaWxsLW9wYWNpdHk6MC43OyIgZD0iTTAsMzIuNjIgICAgICBjMCwwLDkuMTEtMy45OSw5LjExLTguOTh2LTMuODFIMFYzMi42MnoiLz4mI3hhOwkJCTwvZz4mI3hhOwkJCTxnIGlkPSJzaGFwZTU2NzUtMTEiIHRyYW5zZm9ybT0idHJhbnNsYXRlKDAsLTEyLjc4NDYpIj4mI3hhOwkJCQk8dGl0bGUgaWQ9InRpdGxlODc2NjgiPlNoZWV0LjU2NzU8L3RpdGxlPiYjeGE7CQkJCTxwYXRoIGlkPSJwYXRoODc2NzAiIGlua3NjYXBlOmNvbm5lY3Rvci1jdXJ2YXR1cmU9IjAiIHN0eWxlPSJmaWxsOiNGRkZGRkY7ZmlsbC1vcGFjaXR5OjAuNzsiIGQ9Ik05LjExLDIwLjU4ICAgICAgYzAsMC0xLjI1LDMuMTItOS4xMSwzLjEydjguOTJoOS4xMVYyMC41OHoiLz4mI3hhOwkJCTwvZz4mI3hhOwkJCTxnIGlkPSJzaGFwZTU2NzYtMTMiIHRyYW5zZm9ybT0idHJhbnNsYXRlKDkuMTA1MSwtMTIuNzg0NikiPiYjeGE7CQkJCTx0aXRsZSBpZD0idGl0bGU4NzY3MyI+U2hlZXQuNTY3NjwvdGl0bGU+JiN4YTsJCQkJPHBhdGggaWQ9InBhdGg4NzY3NSIgaW5rc2NhcGU6Y29ubmVjdG9yLWN1cnZhdHVyZT0iMCIgc3R5bGU9ImZpbGw6I0ZGRkZGRjtmaWxsLW9wYWNpdHk6MC4zOyIgZD0iTTYuMzYsMjMuNTggICAgICBDMC45NCwyMi45NSwwLDIwLjY1LDAsMjAuNjV2MTEuOTdoOS4xMVYyMy43QzguMTEsMjMuNyw3LjE3LDIzLjY0LDYuMzYsMjMuNTh6Ii8+JiN4YTsJCQk8L2c+JiN4YTsJCTwvZz4mI3hhOwkJPGcgaWQ9Imdyb3VwNTY3Ny0xNSIgdHJhbnNmb3JtPSJ0cmFuc2xhdGUoMy4xMjQ0MiwtMTIuNzc0NikiPiYjeGE7CQkJPHRpdGxlIGlkPSJ0aXRsZTg3Njc5Ij5TaGVldC41Njc3PC90aXRsZT4mI3hhOwkJCTxnIGlkPSJzaGFwZTU2NzgtMTYiIHRyYW5zZm9ybT0idHJhbnNsYXRlKDAsLTAuMTAyOSkiPiYjeGE7CQkJCTx0aXRsZSBpZD0idGl0bGU4NzY4MSI+U2hlZXQuNTY3ODwvdGl0bGU+JiN4YTsJCQkJPHBhdGggaWQ9InBhdGg4NzY4MyIgaW5rc2NhcGU6Y29ubmVjdG9yLWN1cnZhdHVyZT0iMCIgc3R5bGU9ImZpbGw6IzNFM0UzRTsiIGQ9Ik01LjE4LDMyLjYyaC0xLjFsLTIuOTMtNC40OSAgICAgIGMtMC4wNy0wLjEyLTAuMTMtMC4yNC0wLjE4LTAuMzZIMC45NWMwLjAyLDAuMTMsMC4wMywwLjQxLDAuMDMsMC44NHY0LjAxSDB2LTYuMTFoMS4xOEw0LDMwLjg5YzAuMTIsMC4xOCwwLjIsMC4zMSwwLjIzLDAuMzggICAgICBoMC4wMmMtMC4wMy0wLjE2LTAuMDQtMC40NC0wLjA0LTAuODJ2LTMuOTRoMC45N0w1LjE4LDMyLjYyeiIvPiYjeGE7CQkJPC9nPiYjeGE7CQkJPGcgaWQ9InNoYXBlNTY3OS0xOCIgdHJhbnNmb3JtPSJ0cmFuc2xhdGUoNi40MTA5OSkiPiYjeGE7CQkJCTx0aXRsZSBpZD0idGl0bGU4NzY4NiI+U2hlZXQuNTY3OTwvdGl0bGU+JiN4YTsJCQkJPHBhdGggaWQ9InBhdGg4NzY4OCIgaW5rc2NhcGU6Y29ubmVjdG9yLWN1cnZhdHVyZT0iMCIgc3R5bGU9ImZpbGw6IzNFM0UzRTsiIGQ9Ik0wLDMyLjI3di0xLjA0YzAuMSwwLjA4LDAuMjEsMC4xNiwwLjM0LDAuMjMgICAgICBzMC4yNywwLjEyLDAuNDEsMC4xN2MwLjE1LDAuMDUsMC4yOSwwLjA4LDAuNDQsMC4xMWMwLjE0LDAuMDMsMC4yNywwLjA0LDAuNCwwLjA0YzAuNDIsMCwwLjc0LTAuMDcsMC45NS0wLjIyICAgICAgYzAuMjEtMC4xNCwwLjMxLTAuMzQsMC4zMS0wLjYxYzAtMC4xNS0wLjAzLTAuMjctMC4xLTAuMzhjLTAuMDctMC4xMS0wLjE3LTAuMi0wLjI5LTAuMjljLTAuMTMtMC4wOS0wLjI4LTAuMTgtMC40NS0wLjI2ICAgICAgYy0wLjE2LTAuMDgtMC4zNS0wLjE2LTAuNTQtMC4yNWMtMC4yMS0wLjExLTAuNC0wLjIyLTAuNTgtMC4zNGMtMC4xOC0wLjExLTAuMzMtMC4yNC0wLjQ3LTAuMzdjLTAuMTMtMC4xNC0wLjIzLTAuMy0wLjMxLTAuNDcgICAgICBDMC4wNCwyOC40MiwwLDI4LjIxLDAsMjcuOThjMC0wLjI5LDAuMDYtMC41NCwwLjE5LTAuNzVjMC4xMy0wLjIxLDAuMy0wLjM5LDAuNTItMC41MmMwLjIxLTAuMTQsMC40NS0wLjI0LDAuNzItMC4zMSAgICAgIHMwLjU0LTAuMSwwLjgzLTAuMWMwLjYzLDAsMS4xLDAuMDcsMS4zOSwwLjIydjFjLTAuMzQtMC4yNS0wLjc5LTAuMzgtMS4zNC0wLjM4Yy0wLjE1LDAtMC4zLDAuMDItMC40NCwwLjA1ICAgICAgYy0wLjE1LDAuMDItMC4yOSwwLjA3LTAuNDEsMC4xNGMtMC4xMSwwLjA2LTAuMjEsMC4xNS0wLjI4LDAuMjVjLTAuMDgsMC4xLTAuMTEsMC4yMy0wLjExLDAuMzdjMCwwLjE0LDAuMDIsMC4yNSwwLjA4LDAuMzUgICAgICBjMC4wNiwwLjEsMC4xNCwwLjE5LDAuMjUsMC4yOGMwLjExLDAuMDgsMC4yNCwwLjE2LDAuNCwwLjI0czAuMzQsMC4xNiwwLjU1LDAuMjVjMC4yMSwwLjExLDAuNDEsMC4yMywwLjYsMC4zNSAgICAgIGMwLjE5LDAuMTIsMC4zNiwwLjI2LDAuNSwwLjQxYzAuMTUsMC4xNCwwLjI2LDAuMzEsMC4zNCwwLjQ5YzAuMDksMC4xOCwwLjEzLDAuMzgsMC4xMywwLjYyYzAsMC4zLTAuMDYsMC41Ny0wLjE5LDAuNzggICAgICBjLTAuMTIsMC4yMS0wLjI5LDAuMzktMC41LDAuNTJjLTAuMjIsMC4xMy0wLjQ2LDAuMjMtMC43NCwwLjI5Yy0wLjI3LDAuMDYtMC41NiwwLjA5LTAuODcsMC4wOWMtMC4xLDAtMC4yMy0wLjAxLTAuMzgtMC4wMiAgICAgIGMtMC4xNS0wLjAyLTAuMy0wLjA0LTAuNDUtMC4wN2MtMC4xNi0wLjAzLTAuMzEtMC4wNy0wLjQ1LTAuMTFDMC4yLDMyLjM4LDAuMDksMzIuMzMsMCwzMi4yN3oiLz4mI3hhOwkJCTwvZz4mI3hhOwkJCTxnIGlkPSJzaGFwZTU2ODAtMjAiIHRyYW5zZm9ybT0idHJhbnNsYXRlKDExLjA1ODMsLTAuMDAxMjQ3MjcpIj4mI3hhOwkJCQk8dGl0bGUgaWQ9InRpdGxlODc2OTEiPlNoZWV0LjU2ODA8L3RpdGxlPiYjeGE7CQkJCTxwYXRoIGlkPSJwYXRoODc2OTMiIGlua3NjYXBlOmNvbm5lY3Rvci1jdXJ2YXR1cmU9IjAiIHN0eWxlPSJmaWxsOiMzRTNFM0U7IiBkPSJNNS4xNiwzMi4xYy0wLjYzLDAuMzUtMS4zNCwwLjUyLTIuMTIsMC41MiAgICAgIGMtMC45MSwwLTEuNjQtMC4yOC0yLjItMC44NEMwLjI4LDMxLjIxLDAsMzAuNDcsMCwyOS41NGMwLTAuOTUsMC4zMS0xLjcyLDAuOTItMi4zM2MwLjYxLTAuNjEsMS4zOS0wLjkxLDIuMzMtMC45MSAgICAgIGMwLjY4LDAsMS4yNSwwLjEsMS43MiwwLjN2MS4wNGMtMC40Ny0wLjMxLTEuMDMtMC40Ni0xLjY4LTAuNDZzLTEuMTgsMC4yMS0xLjYsMC42NHMtMC42MiwwLjk4LTAuNjIsMS42NyAgICAgIGMwLDAuNywwLjE3LDEuMjUsMC41MywxLjY1czAuODUsMC42MSwxLjQ2LDAuNjFjMC40MiwwLDAuNzktMC4wOSwxLjA5LTAuMjV2LTEuNDVIMi44NlYyOS4yaDIuM0M1LjE2LDI5LjIsNS4xNiwzMi4xLDUuMTYsMzIuMSAgICAgIHoiLz4mI3hhOwkJCTwvZz4mI3hhOwkJPC9nPiYjeGE7CTwvZz4mI3hhOzwvZz4mI3hhOzwvc3ZnPg==;dashed=1;strokeColor=#7EA6E0;strokeWidth=2;fillColor=none;" parent="RUdyyS04vA0CPSo_Z_gt-14" vertex="1">
          <mxGeometry x="-13.580000000000041" y="114.78260869565217" width="23" height="31" as="geometry" />
        </mxCell>
        <mxCell id="RUdyyS04vA0CPSo_Z_gt-47" value="Bastion Host" style="sketch=0;aspect=fixed;html=1;points=[];align=center;image;fontSize=12;image=img/lib/mscae/VirtualMachineWindows.svg;labelBackgroundColor=none;fontColor=#1A1A1A;" parent="RUdyyS04vA0CPSo_Z_gt-14" vertex="1">
          <mxGeometry x="40.1400000000001" y="166.91478260869567" width="50" height="46" as="geometry" />
        </mxCell>
        <mxCell id="RUdyyS04vA0CPSo_Z_gt-23" value="Azure Virtual Desktop" style="sketch=0;points=[[0.015,0.015,0],[0.985,0.015,0],[0.985,0.985,0],[0.015,0.985,0],[0.25,0,0],[0.5,0,0],[0.75,0,0],[1,0.25,0],[1,0.5,0],[1,0.75,0],[0.75,1,0],[0.5,1,0],[0.25,1,0],[0,0.75,0],[0,0.5,0],[0,0.25,0]];verticalLabelPosition=bottom;html=1;verticalAlign=top;aspect=fixed;align=center;pointerEvents=1;shape=mxgraph.cisco19.rect;prIcon=virtual_desktop_service;fillColor=#FAFAFA;strokeColor=#005073;" parent="RUdyyS04vA0CPSo_Z_gt-14" vertex="1">
          <mxGeometry x="34.42000000000007" y="22" width="61.44" height="48" as="geometry" />
        </mxCell>
        <mxCell id="RUdyyS04vA0CPSo_Z_gt-18" value="" style="rounded=0;whiteSpace=wrap;html=1;fillColor=#f5f5f5;strokeColor=none;fontColor=#333333;labelBackgroundColor=none;" parent="1" vertex="1">
          <mxGeometry x="850" y="700" width="110" height="180" as="geometry" />
        </mxCell>
        <mxCell id="RUdyyS04vA0CPSo_Z_gt-19" style="edgeStyle=orthogonalEdgeStyle;rounded=0;orthogonalLoop=1;jettySize=auto;html=1;entryX=-0.08;entryY=0.5;entryDx=0;entryDy=0;entryPerimeter=0;fontSize=14;fontColor=#000000;startArrow=none;startFill=1;endArrow=classicThin;endFill=1;strokeColor=#808080;strokeWidth=2;" parent="1" source="RUdyyS04vA0CPSo_Z_gt-31" edge="1">
          <mxGeometry relative="1" as="geometry">
            <mxPoint x="1165" y="737" as="targetPoint" />
          </mxGeometry>
        </mxCell>
        <mxCell id="RUdyyS04vA0CPSo_Z_gt-20" value="PC" style="shape=image;verticalLabelPosition=bottom;labelBackgroundColor=none;verticalAlign=top;aspect=fixed;imageAspect=0;image=data:image/svg+xml,PHN2ZyB4bWxuczpjYz0iaHR0cDovL2NyZWF0aXZlY29tbW9ucy5vcmcvbnMjIiB4bWxuczpkYz0iaHR0cDovL3B1cmwub3JnL2RjL2VsZW1lbnRzLzEuMS8iIHhtbG5zOmlua3NjYXBlPSJodHRwOi8vd3d3Lmlua3NjYXBlLm9yZy9uYW1lc3BhY2VzL2lua3NjYXBlIiB4bWxuczpyZGY9Imh0dHA6Ly93d3cudzMub3JnLzE5OTkvMDIvMjItcmRmLXN5bnRheC1ucyMiIHhtbG5zOnNvZGlwb2RpPSJodHRwOi8vc29kaXBvZGkuc291cmNlZm9yZ2UubmV0L0RURC9zb2RpcG9kaS0wLmR0ZCIgeG1sbnM6c3ZnPSJodHRwOi8vd3d3LnczLm9yZy8yMDAwL3N2ZyIgeG1sbnM9Imh0dHA6Ly93d3cudzMub3JnLzIwMDAvc3ZnIiB4bWxuczp4bGluaz0iaHR0cDovL3d3dy53My5vcmcvMTk5OS94bGluayIgdmVyc2lvbj0iMS4xIiBpZD0ic3ZnMzE5NiIgaW5rc2NhcGU6dmVyc2lvbj0iMC45Mi4zICgyNDA1NTQ2LCAyMDE4LTAzLTExKSIgc29kaXBvZGk6ZG9jbmFtZT0iZGV2aWNlX2Rlc2t0b3BfMS5zdmciIHg9IjBweCIgeT0iMHB4IiB2aWV3Qm94PSIwIDAgNjYuNzUgNDMuNjMiIHN0eWxlPSJlbmFibGUtYmFja2dyb3VuZDpuZXcgMCAwIDY2Ljc1IDQzLjYzOyIgeG1sOnNwYWNlPSJwcmVzZXJ2ZSI+JiN4YTs8c29kaXBvZGk6bmFtZWR2aWV3IGJvcmRlcmNvbG9yPSIjNjY2NjY2IiBib3JkZXJvcGFjaXR5PSIxIiBmaXQtbWFyZ2luLWJvdHRvbT0iMCIgZml0LW1hcmdpbi1sZWZ0PSIwIiBmaXQtbWFyZ2luLXJpZ2h0PSIwIiBmaXQtbWFyZ2luLXRvcD0iMCIgZ3JpZHRvbGVyYW5jZT0iMTAiIGd1aWRldG9sZXJhbmNlPSIxMCIgaWQ9Im5hbWVkdmlldzMxOTgiIGlua3NjYXBlOmN1cnJlbnQtbGF5ZXI9InN2ZzMxOTYiIGlua3NjYXBlOmN4PSI0NC41MDAwMTUiIGlua3NjYXBlOmN5PSIyOS4wNzk0NCIgaW5rc2NhcGU6cGFnZW9wYWNpdHk9IjAiIGlua3NjYXBlOnBhZ2VzaGFkb3c9IjIiIGlua3NjYXBlOndpbmRvdy1oZWlnaHQ9IjEwMTciIGlua3NjYXBlOndpbmRvdy1tYXhpbWl6ZWQ9IjEiIGlua3NjYXBlOndpbmRvdy13aWR0aD0iMTkyMCIgaW5rc2NhcGU6d2luZG93LXg9Ii04IiBpbmtzY2FwZTp3aW5kb3cteT0iLTgiIGlua3NjYXBlOnpvb209IjE0LjQxMDQxMiIgb2JqZWN0dG9sZXJhbmNlPSIxMCIgcGFnZWNvbG9yPSIjZmZmZmZmIiBzaG93Z3JpZD0iZmFsc2UiPiYjeGE7CTwvc29kaXBvZGk6bmFtZWR2aWV3PiYjeGE7PGcgaWQ9ImczMTk0IiB0cmFuc2Zvcm09InRyYW5zbGF0ZSgtMC43NSwtMC43NDYzNzkpIj4mI3hhOwk8dGl0bGUgaWQ9InRpdGxlMzE1OSI+UGFnZS0xPC90aXRsZT4mI3hhOwk8ZyBpZD0iZ3JvdXAzNTA5LTEiIHRyYW5zZm9ybT0idHJhbnNsYXRlKDAuNzUsLTAuNDAxMTIxKSI+JiN4YTsJCTx0aXRsZSBpZD0idGl0bGUzMTYxIj5EZXZpY2U6IERlc2t0b3AgIzE8L3RpdGxlPiYjeGE7CQk8ZyBpZD0ic2hhcGUzNTEwLTIiIHRyYW5zZm9ybT0idHJhbnNsYXRlKDEuNSwtOS4yODUpIj4mI3hhOwkJCTx0aXRsZSBpZD0idGl0bGUzMTYzIj5yZWN0MjM1MDwvdGl0bGU+JiN4YTsJCQk8cmVjdCBpZD0icmVjdDMxNjUiIHk9IjEwLjYyIiBzdHlsZT0iZmlsbDojNTVBNUU0OyIgd2lkdGg9IjYzIiBoZWlnaHQ9IjM0LjUiLz4mI3hhOwkJPC9nPiYjeGE7CQk8ZyBpZD0ic2hhcGUzNTExLTQiIHRyYW5zZm9ybT0idHJhbnNsYXRlKDQ1LjYzNzUsLTI1LjEwMjUpIj4mI3hhOwkJCTx0aXRsZSBpZD0idGl0bGUzMTY4Ij5wb2x5Z29uMjM1MjwvdGl0bGU+JiN4YTsJCQk8cGF0aCBpZD0icGF0aDMxNzAiIGlua3NjYXBlOmNvbm5lY3Rvci1jdXJ2YXR1cmU9IjAiIHN0eWxlPSJmaWxsOiNGRkZGRkY7ZmlsbC1vcGFjaXR5OjAuMjsiIGQ9Ik0wLDI2LjI1bDE4Ljg2LDE4Ljg3VjI2LjI1SDB6Ii8+JiN4YTsJCTwvZz4mI3hhOwkJPGcgaWQ9InNoYXBlMzUxMi02IiB0cmFuc2Zvcm09InRyYW5zbGF0ZSgxOS44NTI1LC0xLjIyMjUpIj4mI3hhOwkJCTx0aXRsZSBpZD0idGl0bGUzMTczIj5wb2x5Z29uMjM1NDwvdGl0bGU+JiN4YTsJCQk8cGF0aCBpZD0icGF0aDMxNzUiIGlua3NjYXBlOmNvbm5lY3Rvci1jdXJ2YXR1cmU9IjAiIHN0eWxlPSJmaWxsOiM1RTVFNUU7IiBkPSJNMS42LDQzLjYyaDI0LjAzbDEuNTksMS41SDBMMS42LDQzLjYyeiIvPiYjeGE7CQk8L2c+JiN4YTsJCTxnIGlkPSJzaGFwZTM1MTMtOCIgdHJhbnNmb3JtPSJ0cmFuc2xhdGUoMTkuODIyNSkiPiYjeGE7CQkJPHRpdGxlIGlkPSJ0aXRsZTMxNzgiPnBhdGgyMzU2PC90aXRsZT4mI3hhOwkJCTxwYXRoIGlkPSJwYXRoMzE4MCIgaW5rc2NhcGU6Y29ubmVjdG9yLWN1cnZhdHVyZT0iMCIgc3R5bGU9ImZpbGw6IzJFMkUyRTsiIGQ9Ik0yNi4xNyw0NC42NUgxLjE4QzAuMDIsNDUuMTIsMCw0NC4xLDAsNDMuOSAgICAgaDI3LjI4QzI3LjI1LDQ0LjEsMjcuNDMsNDUuMTIsMjYuMTcsNDQuNjV6Ii8+JiN4YTsJCTwvZz4mI3hhOwkJPGcgaWQ9InNoYXBlMzUxNC0xMCIgdHJhbnNmb3JtPSJ0cmFuc2xhdGUoMjcuNzUsLTEuOTcyNSkiPiYjeGE7CQkJPHRpdGxlIGlkPSJ0aXRsZTMxODMiPnBvbHlnb24yMzU4PC90aXRsZT4mI3hhOwkJCTxwYXRoIGlkPSJwYXRoMzE4NSIgaW5rc2NhcGU6Y29ubmVjdG9yLWN1cnZhdHVyZT0iMCIgc3R5bGU9ImZpbGw6IzJFMkUyRTsiIGQ9Ik0wLjkzLDM5Ljg3aDkuNTdsMC45Myw1LjI1SDBMMC45MywzOS44N3oiLz4mI3hhOwkJPC9nPiYjeGE7CQk8ZyBpZD0ic2hhcGUzNTE1LTEyIiB0cmFuc2Zvcm09InRyYW5zbGF0ZSgwLC03LjIyMjUpIj4mI3hhOwkJCTx0aXRsZSBpZD0idGl0bGUzMTg4Ij5wYXRoMjM2MDwvdGl0bGU+JiN4YTsJCQk8cGF0aCBpZD0icGF0aDMxOTAiIGlua3NjYXBlOmNvbm5lY3Rvci1jdXJ2YXR1cmU9IjAiIHN0eWxlPSJmaWxsOiMyMjFGMUY7IiBkPSJNNjUuMjUsOC4zN0gxLjVDMC42Nyw4LjM3LDAsOS4wNCwwLDkuODd2MzMuNzUgICAgIGMwLDAuODMsMC42NywxLjUsMS41LDEuNWg2My43NWMwLjgzLDAsMS41LTAuNjcsMS41LTEuNVY5Ljg3QzY2Ljc1LDkuMDQsNjYuMDgsOC4zNyw2NS4yNSw4LjM3eiBNNjQuNSw0Mi44N0gyLjI1VjEwLjYySDY0LjUgICAgIFY0Mi44N3oiLz4mI3hhOwkJPC9nPiYjeGE7CTwvZz4mI3hhOzwvZz4mI3hhOzwvc3ZnPg==;" parent="1" vertex="1">
          <mxGeometry x="871.5" y="715" width="67" height="44" as="geometry" />
        </mxCell>
        <mxCell id="RUdyyS04vA0CPSo_Z_gt-22" style="edgeStyle=orthogonalEdgeStyle;rounded=0;orthogonalLoop=1;jettySize=auto;html=1;fontSize=14;fontColor=#1A1A1A;startArrow=none;startFill=1;endArrow=classicThin;endFill=1;strokeColor=#808080;strokeWidth=2;" parent="1" source="RUdyyS04vA0CPSo_Z_gt-30" edge="1">
          <mxGeometry relative="1" as="geometry">
            <mxPoint x="1384.5" y="855.5" as="targetPoint" />
          </mxGeometry>
        </mxCell>
        <mxCell id="RUdyyS04vA0CPSo_Z_gt-24" value="" style="shape=image;verticalLabelPosition=bottom;labelBackgroundColor=#ffffff;verticalAlign=top;aspect=fixed;imageAspect=0;image=data:image/svg+xml,PHN2ZyB4bWxuczpkYz0iaHR0cDovL3B1cmwub3JnL2RjL2VsZW1lbnRzLzEuMS8iIHhtbG5zOmNjPSJodHRwOi8vY3JlYXRpdmVjb21tb25zLm9yZy9ucyMiIHhtbG5zOnJkZj0iaHR0cDovL3d3dy53My5vcmcvMTk5OS8wMi8yMi1yZGYtc3ludGF4LW5zIyIgeG1sbnM6c3ZnPSJodHRwOi8vd3d3LnczLm9yZy8yMDAwL3N2ZyIgeG1sbnM9Imh0dHA6Ly93d3cudzMub3JnLzIwMDAvc3ZnIiB4bWxuczpzb2RpcG9kaT0iaHR0cDovL3NvZGlwb2RpLnNvdXJjZWZvcmdlLm5ldC9EVEQvc29kaXBvZGktMC5kdGQiIHhtbG5zOmlua3NjYXBlPSJodHRwOi8vd3d3Lmlua3NjYXBlLm9yZy9uYW1lc3BhY2VzL2lua3NjYXBlIiB2ZXJzaW9uPSIxLjEiIGlkPSJzdmc1MDMyOSIgaW5rc2NhcGU6dmVyc2lvbj0iMC45Mi4zICgyNDA1NTQ2LCAyMDE4LTAzLTExKSIgc29kaXBvZGk6ZG9jbmFtZT0iYXp1cmUuc3ZnIiB4PSIwcHgiIHk9IjBweCIgdmlld0JveD0iMCAwIDYyLjc2IDQ4LjQ4IiBzdHlsZT0iZW5hYmxlLWJhY2tncm91bmQ6bmV3IDAgMCA2Mi43NiA0OC40ODsiIHhtbDpzcGFjZT0icHJlc2VydmUiPjxtZXRhZGF0YSBpZD0ibWV0YWRhdGExNjgwNyI+PHJkZjpSREY+PGNjOldvcmsgcmRmOmFib3V0PSIiPjxkYzpmb3JtYXQ+aW1hZ2Uvc3ZnK3htbDwvZGM6Zm9ybWF0PjxkYzp0eXBlIHJkZjpyZXNvdXJjZT0iaHR0cDovL3B1cmwub3JnL2RjL2RjbWl0eXBlL1N0aWxsSW1hZ2UiLz48ZGM6dGl0bGUvPjwvY2M6V29yaz48L3JkZjpSREY+PC9tZXRhZGF0YT48ZGVmcyBpZD0iZGVmczE2ODA1Ii8+JiN4YTs8c29kaXBvZGk6bmFtZWR2aWV3IGJvcmRlcmNvbG9yPSIjNjY2NjY2IiBib3JkZXJvcGFjaXR5PSIxIiBmaXQtbWFyZ2luLWJvdHRvbT0iMCIgZml0LW1hcmdpbi1sZWZ0PSIwIiBmaXQtbWFyZ2luLXJpZ2h0PSIwIiBmaXQtbWFyZ2luLXRvcD0iMCIgZ3JpZHRvbGVyYW5jZT0iMTAiIGd1aWRldG9sZXJhbmNlPSIxMCIgaWQ9Im5hbWVkdmlldzUwMzMxIiBpbmtzY2FwZTpjdXJyZW50LWxheWVyPSJzdmc1MDMyOSIgaW5rc2NhcGU6Y3g9IjQ5LjM2MTQ4NiIgaW5rc2NhcGU6Y3k9IjEyLjA3MjQ5NyIgaW5rc2NhcGU6cGFnZW9wYWNpdHk9IjAiIGlua3NjYXBlOnBhZ2VzaGFkb3c9IjIiIGlua3NjYXBlOndpbmRvdy1oZWlnaHQ9IjEwMTciIGlua3NjYXBlOndpbmRvdy1tYXhpbWl6ZWQ9IjEiIGlua3NjYXBlOndpbmRvdy13aWR0aD0iMTkyMCIgaW5rc2NhcGU6d2luZG93LXg9Ii04IiBpbmtzY2FwZTp3aW5kb3cteT0iLTgiIGlua3NjYXBlOnpvb209IjUuOTY3MzU3NyIgb2JqZWN0dG9sZXJhbmNlPSIxMCIgcGFnZWNvbG9yPSIjZmZmZmZmIiBzaG93Z3JpZD0iZmFsc2UiPiYjeGE7CTwvc29kaXBvZGk6bmFtZWR2aWV3PiYjeGE7JiN4YTs8cGF0aCBpZD0icGF0aDUwMzI0IiBpbmtzY2FwZTpjb25uZWN0b3ItY3VydmF0dXJlPSIwIiBzdHlsZT0iZmlsbDojMjA3NUI4OyIgZD0iTTE1LjY4LDQ4LjM2YzAuMDctMC4wNyw2LjQtMS4yMywxNC4wNi0yLjU3ICBjNy42NS0xLjM1LDEzLjk3LTIuNSwxNC4wMy0yLjU2YzAuMTItMC4xMS0wLjc1LTEuMTctMTAuMjItMTIuNDZjLTIuNTItMi45OS00LjYzLTUuNTYtNC43LTUuN2MtMC4wOS0wLjE5LDAuODktMy4wNCwzLjczLTEwLjgzICBjMi4xMS01LjgxLDMuODctMTAuNjUsMy45MS0xMC43NWMwLjAzLTAuMDksMC4xMy0wLjE3LDAuMjItMC4xN2MwLjE5LDAsMjYuMTQsNDQuOTEsMjYuMDUsNDUuMDZjLTAuMDQsMC4wNi0xMC42OCwwLjEtMjMuNjQsMC4xICBDMjUuMjEsNDguNDgsMTUuNiw0OC40MywxNS42OCw0OC4zNnogTTAsNDMuMDFjLTAuMDUtMC4xMywwLjU0LTEuMjksMS40NS0yLjg4YzAuODQtMS40Niw0LjQyLTcuNjYsNy45NS0xMy43N2w2LjQxLTExLjFsOS4wOC03LjYzICBDMjkuODgsMy40NCwzNC4wNCwwLDM0LjEzLDBjMC4xLDAsMC4xMywwLjA5LDAuMDgsMC4yNEMzMy43NCwxLjQ4LDE0LjMsNDIuOTIsMTQuMTMsNDMuMDVjLTAuMTksMC4xMy0xLjg0LDAuMTctNy4xNSwwLjE3ICBDMC45MSw0My4yMiwwLjA3LDQzLjE5LDAsNDMuMDF6Ii8+JiN4YTs8L3N2Zz4=;" parent="1" vertex="1">
          <mxGeometry x="1005" y="627.24" width="43" height="32.76" as="geometry" />
        </mxCell>
        <mxCell id="RUdyyS04vA0CPSo_Z_gt-25" style="edgeStyle=orthogonalEdgeStyle;rounded=0;orthogonalLoop=1;jettySize=auto;html=1;entryX=0;entryY=0.5;entryDx=0;entryDy=0;entryPerimeter=0;fontColor=#99CCFF;startArrow=classicThin;startFill=1;endArrow=classicThin;endFill=1;strokeColor=#808080;strokeWidth=2;" parent="1" target="RUdyyS04vA0CPSo_Z_gt-23" edge="1">
          <mxGeometry relative="1" as="geometry">
            <mxPoint x="1220" y="736.7" as="sourcePoint" />
          </mxGeometry>
        </mxCell>
        <mxCell id="RUdyyS04vA0CPSo_Z_gt-26" value="TO-BE (A)" style="text;html=1;strokeColor=#2D7600;fillColor=#60a917;align=center;verticalAlign=middle;whiteSpace=wrap;rounded=0;fontColor=#000000;fontStyle=1;fontSize=14;" parent="1" vertex="1">
          <mxGeometry x="871.5" y="580" width="78.5" height="30" as="geometry" />
        </mxCell>
        <mxCell id="RUdyyS04vA0CPSo_Z_gt-27" value="" style="fillColor=#999999;verticalLabelPosition=bottom;sketch=0;html=1;strokeColor=#ffffff;verticalAlign=top;align=center;points=[[0.145,0.145,0],[0.5,0,0],[0.855,0.145,0],[1,0.5,0],[0.855,0.855,0],[0.5,1,0],[0.145,0.855,0],[0,0.5,0]];pointerEvents=1;shape=mxgraph.cisco_safe.compositeIcon;bgIcon=ellipse;resIcon=mxgraph.cisco_safe.capability.host_context;labelBackgroundColor=none;fontSize=14;fontColor=#1A1A1A;" parent="1" vertex="1">
          <mxGeometry x="1412" y="862" width="32.5" height="33" as="geometry" />
        </mxCell>
        <mxCell id="RUdyyS04vA0CPSo_Z_gt-28" value="2" style="ellipse;whiteSpace=wrap;html=1;aspect=fixed;fillColor=#4D9900;strokeColor=none;labelBackgroundColor=none;" parent="1" vertex="1">
          <mxGeometry x="1270" y="725.5" width="23" height="23" as="geometry" />
        </mxCell>
        <mxCell id="RUdyyS04vA0CPSo_Z_gt-29" value="" style="edgeStyle=orthogonalEdgeStyle;rounded=0;orthogonalLoop=1;jettySize=auto;html=1;fontSize=14;fontColor=#1A1A1A;startArrow=classic;startFill=1;endArrow=none;endFill=1;strokeColor=#808080;strokeWidth=2;" parent="1" source="RUdyyS04vA0CPSo_Z_gt-23" target="RUdyyS04vA0CPSo_Z_gt-30" edge="1">
          <mxGeometry relative="1" as="geometry">
            <mxPoint x="1383.7" y="760" as="sourcePoint" />
            <mxPoint x="1384.5" y="855.5" as="targetPoint" />
          </mxGeometry>
        </mxCell>
        <mxCell id="RUdyyS04vA0CPSo_Z_gt-30" value="3" style="ellipse;whiteSpace=wrap;html=1;aspect=fixed;fillColor=#4D9900;strokeColor=none;labelBackgroundColor=none;" parent="1" vertex="1">
          <mxGeometry x="1372.2199999999996" y="803.5" width="23" height="23" as="geometry" />
        </mxCell>
        <mxCell id="RUdyyS04vA0CPSo_Z_gt-31" value="1" style="ellipse;whiteSpace=wrap;html=1;aspect=fixed;fillColor=#4D9900;strokeColor=none;labelBackgroundColor=none;" parent="1" vertex="1">
          <mxGeometry x="1062" y="725.5" width="23" height="23" as="geometry" />
        </mxCell>
        <mxCell id="RUdyyS04vA0CPSo_Z_gt-32" value="" style="edgeStyle=orthogonalEdgeStyle;rounded=0;orthogonalLoop=1;jettySize=auto;html=1;entryX=-0.08;entryY=0.5;entryDx=0;entryDy=0;entryPerimeter=0;fontSize=14;fontColor=#000000;startArrow=classic;startFill=1;endArrow=none;endFill=1;strokeColor=#808080;strokeWidth=2;" parent="1" source="RUdyyS04vA0CPSo_Z_gt-20" target="RUdyyS04vA0CPSo_Z_gt-31" edge="1">
          <mxGeometry relative="1" as="geometry">
            <mxPoint x="938.5" y="737" as="sourcePoint" />
            <mxPoint x="1165" y="737" as="targetPoint" />
          </mxGeometry>
        </mxCell>
        <mxCell id="RUdyyS04vA0CPSo_Z_gt-34" value="MFA" style="verticalLabelPosition=bottom;html=1;verticalAlign=top;align=center;strokeColor=none;fillColor=#00BEF2;shape=mxgraph.azure.multi_factor_authentication;pointerEvents=1;labelBackgroundColor=none;fontSize=14;fontColor=#000000;" parent="1" vertex="1">
          <mxGeometry x="893.25" y="802.38" width="25" height="50" as="geometry" />
        </mxCell>
        <mxCell id="RUdyyS04vA0CPSo_Z_gt-52" style="edgeStyle=orthogonalEdgeStyle;rounded=0;orthogonalLoop=1;jettySize=auto;html=1;strokeWidth=2;startArrow=none;startFill=1;strokeColor=#808080;" parent="1" source="jaKhmesQxGNKAlyMqy8P-1" target="rYsjbnjLWIEjAzCpw-MW-5" edge="1">
          <mxGeometry relative="1" as="geometry">
            <mxPoint x="1360" y="1060" as="sourcePoint" />
            <Array as="points" />
          </mxGeometry>
        </mxCell>
        <mxCell id="RUdyyS04vA0CPSo_Z_gt-38" value="S2S VPN" style="sketch=0;outlineConnect=0;fontColor=#232F3E;gradientColor=none;fillColor=#4D27AA;strokeColor=none;dashed=0;verticalLabelPosition=bottom;verticalAlign=top;align=center;html=1;fontSize=12;fontStyle=0;aspect=fixed;pointerEvents=1;shape=mxgraph.aws4.vpn_connection;labelBackgroundColor=none;" parent="1" vertex="1">
          <mxGeometry x="1180" y="955.58" width="35" height="39" as="geometry" />
        </mxCell>
        <mxCell id="RUdyyS04vA0CPSo_Z_gt-41" value="Hub Virtual Network" style="text;html=1;strokeColor=none;fillColor=none;align=center;verticalAlign=middle;whiteSpace=wrap;rounded=0;dashed=1;" parent="1" vertex="1">
          <mxGeometry x="1127.5" y="670" width="128" height="22.71" as="geometry" />
        </mxCell>
        <mxCell id="RUdyyS04vA0CPSo_Z_gt-45" value="Spoke Virtual Network" style="text;html=1;strokeColor=none;fillColor=none;align=center;verticalAlign=middle;whiteSpace=wrap;rounded=0;dashed=1;" parent="1" vertex="1">
          <mxGeometry x="1318.58" y="669.9999999999999" width="128" height="22.71" as="geometry" />
        </mxCell>
        <mxCell id="RUdyyS04vA0CPSo_Z_gt-40" value="4" style="ellipse;whiteSpace=wrap;html=1;aspect=fixed;fillColor=#4D9900;strokeColor=none;labelBackgroundColor=none;" parent="1" vertex="1">
          <mxGeometry x="1277.75" y="1074" width="23" height="23" as="geometry" />
        </mxCell>
        <mxCell id="fj1gGgNy0eAuGI-fnEVn-1" value="" style="rounded=0;whiteSpace=wrap;html=1;fillColor=#EAEDED;fontSize=22;fontColor=#FFFFFF;strokeColor=none;labelBackgroundColor=none;" parent="1" vertex="1">
          <mxGeometry x="1150" y="81.25999999999999" width="445" height="235" as="geometry" />
        </mxCell>
        <mxCell id="fj1gGgNy0eAuGI-fnEVn-2" value="由T24的AP人員負責啟用帳號及產生AAD登入密碼提供給T24外部廠商人員,使用者直接經由Azure Portal進行MFA雙因子初始綁定及驗證" style="text;html=1;align=left;verticalAlign=top;spacingTop=-4;fontSize=14;labelBackgroundColor=none;whiteSpace=wrap;" parent="1" vertex="1">
          <mxGeometry x="1214" y="95.25999999999999" width="361" height="61" as="geometry" />
        </mxCell>
        <mxCell id="fj1gGgNy0eAuGI-fnEVn-3" value="&lt;span&gt;驗證使用者合法權限&lt;/span&gt;" style="text;html=1;align=left;verticalAlign=top;spacingTop=-4;fontSize=14;labelBackgroundColor=none;whiteSpace=wrap;" parent="1" vertex="1">
          <mxGeometry x="1214" y="161.26" width="296" height="44.12" as="geometry" />
        </mxCell>
        <mxCell id="fj1gGgNy0eAuGI-fnEVn-4" value="&lt;span style=&quot;font-size: 12pt&quot;&gt;透過&lt;/span&gt;&lt;span style=&quot;font-size: 12pt ; font-family: &amp;#34;calibri&amp;#34;&quot;&gt;IP-guard&lt;/span&gt;&lt;span style=&quot;font-size: 12pt&quot;&gt;安控去存取獨立的堡壘機&lt;/span&gt;" style="text;html=1;align=left;verticalAlign=top;spacingTop=-4;fontSize=14;labelBackgroundColor=none;whiteSpace=wrap;" parent="1" vertex="1">
          <mxGeometry x="1214" y="212.14" width="321" height="46.12" as="geometry" />
        </mxCell>
        <mxCell id="fj1gGgNy0eAuGI-fnEVn-5" value="1" style="ellipse;whiteSpace=wrap;html=1;aspect=fixed;fillColor=#4D9900;strokeColor=none;labelBackgroundColor=none;" parent="1" vertex="1">
          <mxGeometry x="1180" y="98.75999999999999" width="23" height="23" as="geometry" />
        </mxCell>
        <mxCell id="fj1gGgNy0eAuGI-fnEVn-6" value="2" style="ellipse;whiteSpace=wrap;html=1;aspect=fixed;fillColor=#4D9900;strokeColor=none;labelBackgroundColor=none;" parent="1" vertex="1">
          <mxGeometry x="1180" y="158.26" width="23" height="23" as="geometry" />
        </mxCell>
        <mxCell id="fj1gGgNy0eAuGI-fnEVn-7" value="3" style="ellipse;whiteSpace=wrap;html=1;aspect=fixed;fillColor=#4D9900;strokeColor=none;labelBackgroundColor=none;" parent="1" vertex="1">
          <mxGeometry x="1180" y="212.14" width="23" height="23" as="geometry" />
        </mxCell>
        <mxCell id="fj1gGgNy0eAuGI-fnEVn-8" value="4" style="ellipse;whiteSpace=wrap;html=1;aspect=fixed;fillColor=#4D9900;strokeColor=none;labelBackgroundColor=none;" parent="1" vertex="1">
          <mxGeometry x="1180" y="258.26" width="23" height="23" as="geometry" />
        </mxCell>
        <mxCell id="fj1gGgNy0eAuGI-fnEVn-9" value="&lt;p style=&quot;margin-top: 4.32pt ; margin-bottom: 0pt ; direction: ltr ; unicode-bidi: embed ; vertical-align: baseline&quot;&gt;&lt;span style=&quot;font-size: 12pt&quot;&gt;透過&lt;/span&gt;&lt;span style=&quot;font-size: 12pt ; font-family: &amp;#34;calibri&amp;#34;&quot;&gt;AMMP&lt;/span&gt;&lt;span style=&quot;font-size: 12pt&quot;&gt;部署遷移&lt;/span&gt;&lt;span style=&quot;font-size: 12pt ; font-family: &amp;#34;calibri&amp;#34;&quot;&gt;T24&lt;/span&gt;&lt;span style=&quot;font-size: 12pt&quot;&gt;沙箱至雲端&lt;/span&gt;&lt;/p&gt;" style="text;html=1;align=left;verticalAlign=top;spacingTop=-4;fontSize=14;labelBackgroundColor=none;whiteSpace=wrap;" parent="1" vertex="1">
          <mxGeometry x="1214" y="256.26" width="366" height="59.43" as="geometry" />
        </mxCell>
        <mxCell id="rYsjbnjLWIEjAzCpw-MW-3" style="edgeStyle=orthogonalEdgeStyle;rounded=0;orthogonalLoop=1;jettySize=auto;html=1;entryX=1.009;entryY=0.807;entryDx=0;entryDy=0;entryPerimeter=0;" parent="1" source="rYsjbnjLWIEjAzCpw-MW-1" target="RUdyyS04vA0CPSo_Z_gt-44" edge="1">
          <mxGeometry relative="1" as="geometry">
            <mxPoint x="1250" y="860" as="targetPoint" />
            <Array as="points">
              <mxPoint x="1250" y="859" />
            </Array>
          </mxGeometry>
        </mxCell>
        <mxCell id="rYsjbnjLWIEjAzCpw-MW-4" style="edgeStyle=orthogonalEdgeStyle;rounded=0;orthogonalLoop=1;jettySize=auto;html=1;entryX=0.001;entryY=0.712;entryDx=0;entryDy=0;entryPerimeter=0;" parent="1" source="rYsjbnjLWIEjAzCpw-MW-1" target="RUdyyS04vA0CPSo_Z_gt-16" edge="1">
          <mxGeometry relative="1" as="geometry" />
        </mxCell>
        <mxCell id="rYsjbnjLWIEjAzCpw-MW-1" value="Peering" style="sketch=0;outlineConnect=0;fontColor=#232F3E;gradientColor=none;strokeColor=#232F3E;fillColor=#ffffff;dashed=0;verticalLabelPosition=bottom;verticalAlign=top;align=center;html=1;fontSize=12;fontStyle=0;aspect=fixed;shape=mxgraph.aws4.resourceIcon;resIcon=mxgraph.aws4.peering;" parent="1" vertex="1">
          <mxGeometry x="1269.5" y="850" width="20" height="20" as="geometry" />
        </mxCell>
        <mxCell id="jaKhmesQxGNKAlyMqy8P-1" value="FireWall" style="image;html=1;image=img/lib/clip_art/networking/Firewall_02_128x128.png" parent="1" vertex="1">
          <mxGeometry x="1226.25" y="1036.37" width="51.5" height="48.63" as="geometry" />
        </mxCell>
        <mxCell id="jaKhmesQxGNKAlyMqy8P-2" value="" style="edgeStyle=orthogonalEdgeStyle;rounded=0;orthogonalLoop=1;jettySize=auto;html=1;strokeWidth=2;startArrow=classic;startFill=1;strokeColor=#808080;endArrow=none;" parent="1" target="jaKhmesQxGNKAlyMqy8P-1" edge="1">
          <mxGeometry relative="1" as="geometry">
            <mxPoint x="1330" y="1060" as="sourcePoint" />
            <Array as="points">
              <mxPoint x="1200" y="1060" />
            </Array>
            <mxPoint x="1200" y="878.05" as="targetPoint" />
          </mxGeometry>
        </mxCell>
        <mxCell id="KnDAXdpY1QjZh2z6YXct-2" value="10.229.40.0/22" style="group" parent="1" vertex="1" connectable="0">
          <mxGeometry x="1324.5" y="1028.6299999999999" width="140" height="90" as="geometry" />
        </mxCell>
        <mxCell id="n5_I6byfZpMls4aMLi-D-1" value="" style="shape=image;verticalLabelPosition=bottom;labelBackgroundColor=default;verticalAlign=top;aspect=fixed;imageAspect=0;image=data:image/png,iVBORw0KGgoAAAANSUhEUgAAANsAAAB9CAYAAAArxhazAAAcaklEQVR4nO2daXMkyXnff5lZR184G+fcO7s7O7PmepfLJSNoiVKQdNjBsCU5FKHP4PA38XfwO4fDEfYLR8h2+KRkSbRMMkRZoiiTy90d7dwHjm703XVkpl9UVaOBBWYxGKCAxeRvoqfR6KrqQmb/63nyySefEtZai8PhOHXkWZ+Aw/G64MTmcJSEE5vDURJObA5HSTixORwl4cTmcJSEE5vDURJObA5HSTixORwl4cTmcJSEE5vDURJObA5HSXhn9cHGGAaDPqPRECklSio8z8fzfZRSeJ6HlO5acJGwWLK897PKfRcIIRCIM/n0MxGbtZbt7S122m1GwwHKE/i+j+/7eJ6PUhIpFUJKhJBIKZHFs1JIqbKf80fRiFIKQCClRIizaVDHF7FT4sr65Wz7pjifskV3ZmLrdjpsPN9gY7PLw8cx1WpIrRZSqQaEgSQIFEEoqYSKSugRBB6+r/A9D+V5eMpDKYVSCiEFQkiUUhRiK6yiEJnwdh8wucJN/eys6GljifWYSI9ITbz3LfHCl0d65ygo6RPKKr6qnIl1OzM3Uqcpw2HMrz/p8q/+9XMaM3WazRkWF2s0ZgQLc5LFRcVSU7EwFzLb8KhVJZXQZlbQUyglkMpD5mIrLF4moOwq6uXClEpmz8W2and7pTyCIDirpngtSHTM9ugJz4f36SWt7KsuBIjcwkx998Xkv30cw1sRCMiXbNb9OZYq11iqXCGQlWP8Fa/G2YjNWrROGY4SOh1Nt+2xuRHy4F6A53so38cLA7yKj18LqFdDatWAuTnF1evw929L1pcsvmczEckU39NUgpQwkJkIJYAl8BJ8T+J7EiV3XVEhMyvoeT6VSojv+871PEEsFoFA25RR0ucnT/8zn3f/hnb0DIueeBoIgZh2KsSUzRHF064XMn38ozBtwaRQzAXLXKv/Pb65/ANq3ixK+JNzPW3Oxo0EtNb0+ymtHU0cC4aJQAsBsQDpgfJBVcCr4KsQT4TMzob0bMB778L8AijPkqRgrcGgidAkKaAF1oI2GonGkwbfA9+TSCEIfEG9agl9S7e1hdaWN998E8/znOBOjEwMvbjFJ62f8XHrpzwffU5sRrvjayGyIQDsWq3cyE2P7SwmE9ekqEAxDJhS6XTBgek+tLsStfn5RHpIw5/j1ty3mA9WT/wvP4yzi0ZqTbefsN1OMRqsB3gWFNmEhBQgJAiPxHokiY8YhOz0azTqisvrgiCAwRiSFFJtSY3BWIs2oI0lTTTGJKBTlLUERpBoS6AMSIOvElqtFr3egOvXr2fjPye2k8Fm1qc93uDnm3/C8+HnRGaIksUYW0yeJxR629MHFkF2kUQAVpDHNXM9WzLxSYoKH2LPwaaeLER6xOboIX/b+jNWKteZ9ZdL6/OzG7NpTaeTsLmdYmxx1bJgDZA/hAapQaagUrRK6HYSegOBtYrZGlT8fFcpQCjIjpI9jI+2IVpDakBr2OgYhuOYznBARcaMxyOiKMaVYjlZhJCkJqaftHky+IzERiAK9zIja/MpNdhcfBZSG6NNghCCqjdHzZshVDVAEOkRI91lmHQw1uBJH08Gk2NaC0Ls7U879VNsxjwb3aObtEhtRCCqp94ecAZis/l4zVrLeGzp9yxWCxCF0HLhWZO/1hTiS42h1dU827S0OrAwC3Gai03sPsTUwxMCT0JI9jpOJaFS1JUkisZorQkC37mQp4CxGm1jUhthRTYuElLs6Sub+3lZkMRi8iHBrL/EWvUGVxq3WQjWafhz+HlQIzExg7TDTvSUR4Nf82z0OZ1kM7eAmWs5reOC3UCMJbERqYnQJi0tteMMxGZIkhRjDFqDQRA2fJI4m+hGFuKy2bPV2UMYtDGMBpqnG4bNbcuVVUGcgMk9CiEAmRu53AstPFIps4dAIAUEnmXQH6G1wfcrbm7uFLBk4rHYrG+K6ZbpqbZ90UgpFJdqb3Ot8S7XG++yWn2DGW+BUNWQIvu6GquJzIhB0mKleoOHg19xv/9Lng4/w1idH/bgvixGgdaaybmVReliM8aQJDFpqrFY/FCxsBoSP7OkkQa1z6IVFk5oQGMizdPnmqebijuRItH7xCZ2n6XMfp4ITsFgbEhiw3ygGY1GGG3wa37ZzfCasOtiCLs7HfMFiyNE7g4GzIfLfGPpH/P23DdYDC8dmGwihaKqGlRVnaXqNa7U32GleoP/8/w/0IqekpgIIQTW2nN1AT0TscVxTBSnJInF9z2uX2vQ7w4YRgYK67ZPZKDBpqA1G1spzzYV/YHCytzrhKxvJV9wJYXIxWZgGFl0kmJ0TBSNMNbg+86FPE2EBGEzN1EIMXEdIbNAxhoQsFq9zm+u/QHXGu/S8Oax1ky2+eLEWxEkscwETW7NfZO6N8ufPfv3POp//EKhWdhzDmVxNpYtjkgSTZJYhBUsL4bMzo3p9lOiNAHl7bqPE+tWuJeadkez0TK0+5ZqKLLGs4DMO/aAsVvxu1FkkEajREKSJIAgCJxlOy0Ka7YnQpj/LJEgIDUR69Wb3Jr7Jjca71H1GkiRzYMWAZPsWLkTaO3kPWstEklVzXC1fod35r5FYiIeD36NL7IxnsUcKr4y9XY2li2KSVNLmgIWGjXFwrxHu5UQtWPwVG6icvVIAbZ4Lej2JVstj9aOT3M+M2UmHxALNTVlI3bFJwRoC3FsCKVGihSdpvi+TxCEZTfDa0QR3s9C9vlvsvEceiKCK/V3eGv2G8wGzXzcJSb/DnI7p7GAEoqGv8Bbsx/Sjbd4NryLtsnEKhZyP8uYc/li04ZoHKFTizHZVUpKy+K8x1ZD0Noag847phi72dytFFlUcjCE7ZZic9unFvoTIQEIJfZYMjEVMIk0xLGlEmokBqMNquJRrVadG3mKiHzMNv3aYEhtjLWG+WCVq/V3uVy7lb3/kuHBQlDWWtarb3G18ZCPOz9hc/wQicST4SRKCRRTc6VTvtisIU4ixnFMnKQkqSGOUyoVSbUuEZ7BGg0izZSi2XUjRQo2IhlG7LQ1zzcEi7MVlJJoXWQkFInHgBSZs5Jbt2EEaWrzIIzGWEMYhtRqNSe2UyIPQk4Mm83nuWb9JouVS6xUr7NavcG1xh086Wcu4kt0xZSXCdYiheJy7Ra/ufoHPB3eZXP8kFb0hE68iS/DSYDmLOZVyw/9G0MSx/R6McNRSpoaxuNs8jIMJWEFoijFWpm7jgLMdJjRYhLLsOezuTXm2rrC8wqxKYQwmcgm2f42Sz62gt5YoITBVjXWasASBAH1er3sZngt2HXgJAKJIcVXIZcqb3Fz9uus124yGywx4y0y4y8yUVkxJDiS6iYqnuw/Fyxza+6brNfepBtv8Xx0j7/r/TUbo/vEZpwt1xKydON2RgGShE4nZjjUpBpGowSLxPcs9ZokiVK0kVmOpJhyJcmtnRGMRzGtnZhePyQMFNrkjS53RVakA0khwQp6A0m9osGkGJ3NhgdBQKVScZbtFNi7bsziyYBmeIkPmt/n9vy3WQzX9pkmdkP2LyGFYgxY7BvIKs3wMs1KNnWwE28wH67ws83/yub4AalNJuPIMu3bmYgtimLaOzHDoUGngtEoza9khkZd0e0kaJOJYhLLJ2USMLEQjRPanZhuL6VSIU8CMrl1y8LMarKY1GCtpN83VP0YISJSnWKxSCnxvDPLWrvw5AF6YjNmvX6Try1+h4+Wf4Avg3zltsmsn5CZaI45NzY9r1asCC+OPRcs8/7i94n1iL9u/REP+x+jhFe6K1nqt8xam09qp3S6hsHQkKSCwSDLTYxjUMqiPEhjjTXJbhrItIthDXGs6OxE7HRjaokhn7oGaSYZ4TKfYJNCYpB0+7Ayn+CrhHEU5YbQWbTTQgmPxco67ze/S2xGrFVvcnP2A3xZmcQmM69j/0ru4zG9byZgNTl2IEPenvsIKTzWqjdRwqdZuYwnypv2KV1sWmuSJGWnkzAYatJEMhwkaGNINRgNnmdJEp25hkLmOssb0ggwhiSW9HpjdjoRaWry5RYSITPrNy02ISTGSvoDgyDFVylxnExKLDhOByk8FsI13lv8bQyaGb/JfLAycSt34ya5KylOyNIUkenJp2QshpeQcx6r1RuAoBleniQwl0GpYsvyIVPiJKG1k9DvZ+vPRnmgRBtDakAKiyzC+TYPkExbIJuJdDAY0+mMMcYglQIrEVKhFChpkbJYQZAtu0kjg0nHpEmfkR4jpcpLKThOAykkM34R/GDXvftC5n/x88l+vp0KmoBFCZ+lyhWWK1dP9oOOSPmWLQ/1t3YSekMNVjCyllQbdPFI8yuSsLtig8xTFAAKncZEw4huNwJh8TyFsZmlmq0Nqdc6BGoLm7bRSZckGVKx0HpS4ZNRhZlGhUZjtsw//7VHTCa4z+rTz5ZSxabTNMuLjDTddkx3KwGpkYEEmy38NMagDRgj9q6TyBcBFC+0FkRRRK83QghNpaIIQ8tspcNc0GYm7DNTt9RrHtVwGd/PLJgxmjRNiOKY4eYWwaefAnDlyhWq1aqzdCeKRRtNrBN2V3KwZ1hwJAGcuEqy6QhP+vkUQDkyLFVsaZoQRTHaGK6sV7FpQJwKRqmhP0gZDRPisc4Wk0IW9hc2yyC2BmSxyNTDCIhiQa87wlea0DPUG0OWZrdZbWqWmyGLzQXm5+aYmZmhUsny5IbDIb1ej/bODjvtNu12m48//jVJknDlyhVmZ2ed4E4IbTTbw+d8tvULrEizWJeUeYbP7urrYqK5mJcD9o7TT0ALu85kMfenuFK/xVywjCfLCZKUKrYkToijCCUNv/s7lxgMFe0dzb2HQz692+fR/QGtaJxdA43BmmwVt5Ume6hceNJgjSWJodcbMddIqPsDVueesbro8e7tN7lz5zbNZpMwDCdr1bIxoyaKIvrDPp12h7t37/Lw4SPa7RYAb7zxBo1Go8xmubAkOuLu1s/5N3/5LzEyQfkKP/BQSuIplVc4kwiZ1STZLZMgJloTryy6KQtaOEsWlFT84Oo/54737YsptjhJGAwHDPttanMj5psVrlwLuHO7wfd+a55oLBiNDNvtmGfPs8fG85iN7axWSX9gYRwDGlSC1Sn9PtTChPXlMesrHt/61ge8ceMGi4sL+L4/EVoRCY3jiCftp/z84S+4Of8Wl69cpVqp8Mmnd7l79+/wfZ/bt2+X2SwXlszzN2gSrMhWbQhjMEJgpEJZibQSYbIckz1junzIvsflfAWx7b7KxGyMwhh9cRePer5Po9FgaWUFVIyxGmuGBCphdrFGEFaQMmQ09ul0q+x0Ujo7Kds7mp2Oodu1jPqGbs/S7ln6Y2jMGVYWB1xeU7x7503euHGDpaXmpA5kITKtNePxmLsbn/JXT37K/33+IwbJ73Jr/m0Wm03Wen12dnZ49PARS80llpaXymyaC0lWRUshPYURJrNcktyCkevA5ssysn0mWScW7CS7JFvpfdxo5bTc7NQiAlHieA1KFlu1WmVlbQ3lKXq9blbrfzgkjmIEFkGKkobZBszW4fK6xJqAKM7GZ+NI0O/D5rbNSiO0UnxvwPqyZn11ljt3bk8sGuxOoqdpyiga82T7MT+5/yP+8tmP2EoecrW2yeXaVRYai1y6tE6r3WJjc5MHDx44sZ0ASniEXpVGZY6h3gFpUcrbrd+ZV9jaHccVObBTAhF7rdrxEvZ3XUlLlqxcUXUCVUHJ8iRQutgqlQqrq6uZELQhiiJ2OjsMhwO63S6dnR26nT5JEqPTzFU0JkVgkJ5gaSFkfbnK++9WSLTH5maCNgGLzQWazeYXhJYtUk1o99r88Jf/gx9v/CEjbfhg8V/w7fWv0azU0Vrj+x6NRp3xOOLBgwd8+I0Py2yaC4fF4imfucoil2bf4FH/YxI7RkmFUjK3cmI3KXgiNqaGaGKPsorhwNGTlPfmZ2ZFYzVK+CyG68x4i6VWRi5VbJMquDlWWZSn8AOfNF1gdSUhThJ0mk5qlfT7PVrb23R22nS7HXpbPaCHFBILdDoDFptN5ufmCMNsCcWT7Sc83H5ErDU3l65T8eq0R13+X+untAYRV2ff4Vtrt6hJjziKSJJs1Xa9VieOYp4+fVpms1xYBIJmbZ3fuPY7/OmDMc9H97AiWx2/S1F0ZyopOK9XMikLOb39VKHWo1HEH7N9lPBYDC/xYfMfsRCu5Z97gSsiFwghJjfH2M9oNKLdbjPebhElmkSDtoooNnmhnhRrDP1RxMraGjMzM5ObYzzqPObHD/43O8lDutH3uD57CzSs12+yPRgyHMc82PmEwL5BXVUxOpv/q9VqdDtdtre3y26KC0s9mOPt5tfpJy0e9H5FJ9lAE2drD4XIU+r2W7HCtE2v7AZeSRQCXwbMBctcrt/i5uwH1LxykxrOXbq7tZY0TWm1Wjx48IDP790jSZI8KCUIKlVGUUwcxSRJyngc4XneZJmM1ppu0uPzwWfc7fyQ0Tjhw+Ux7yy8w29f+X3iWPBXz/6CP/z4P/HP3vp9bs5dJcynBarVKlJKer3eWTfDV55i2YsnfeYry/zG1d/j5uA9nvTvMkjbE7EV/bpfQnbq/y8c+UC9HSLCqQm2mjfLWvUmq7UbVFQ9/3U5Vg3Omdiy5TcRGxsbPH78mG63y/Ly8sTV01pTqVSoVquMR2O6vR5RFO3Z3xjDeyvvYbXk3/485pPuz+hFGwz6/5R3V+7wnSv/kIpY4r/d/e/84unnVESVNxdWXd3IU2C37ofFlxUuN95mtXY9q6a1u9EJfM4RtxMKT/ioPNP/tbg/22GMx2NarRbb29skSYLn5fdgywMrwGRyOk1Ter0eo+EQrTXD/DlNU0IZcGP2Ov/k5u/xw3s9nvbu8dPkP1KVAeuz1/jw0nvUgiqr1RXW6gsEQYAQgjiKMMYwMzNzxi1xsShcRE8EU0taDrZlxU/jdMA4HWIp1rsVu03NwwECRahqhLLKXkt4kJDsbnTzDDIlz43Ystv+DtjY2KDX62GtnSzqLETned7kd4WV23i+MRFeHMekWpMmCZ6BlaBJYKqM44gOW0RpRKAkSzNrrM+tEsjM2TFaI6Wk2+2ijabZbJ5lU7wm7A3iFzKx1rDRf8Tj7l22h08QKhvXSZVnmBRTBvncnBSKZniJ1eoN5oLlyTHPo49ybsSWpindbpeNjY38BoVq8qyUykvOBZPQfjFRPT8/z3A0or2zw3A0AmsZRxHPWs/5k1/9MZ+3/5aAGm/Xvsvby28x35jLxnhit+6g1hqEoD8YYKxlfX39jFvj4rGb83i4DKy1JDrmZw//mL949D952PsVYRjieQrpS5SX1ZvJvhNyIrgbM1/j/eb3eH/x+/gyoAj0H3QWZ8m5EZsxJi9rJyc3ry+E5nneF8SW5jUfFxYWGA6H7LR3aLdaVCsVPt96zI/v/Tl/vvXvmJGX+frqP+A7b3yXudp8dt9utXtPboAkSRiNRgz6A4Ig4Nq1a2fZFK8dWTkDaA03+MXTH/OzR3/ExvABgR9mXo2XiUt5ajenUhT3dhNsjO7xN63/RVXNcL3xNWb8xVIDH0fl3NxI2vM86vU68/PzE1FNxmz5owhiFELxfZ+5PKs/TRM+++wunW4XaRVzQZMl/zYfrvwWH6x9xOrMCmEQ4hXiDXyUp0BkY8VHjx4jhGBledmJrUSKMuBRGvGk+zk/vv9feD64n02AexKhsns0SFUkKzOV6pXtP9ZDNob3+UXrT2lFT9A23T32OeLcWDbP85iZmWFlZYXt7e3MtYOJZTsoWiilpFqr0lxqsrW1xYMHDwnDkJnZOW4t3iKJfG6vXmV9volUCjXlnkohSZKEfr/P5uYmT548ZW1thStXr7hUrZIRCLRJGMRdWqMNZqpzeN4Cvu8hvcyiSVX0XS66KcXZvF7kTvycSA8x1mQFfc6Z2IQ9R3cBtNYSRRH379+n2+1ijKFWq00EVwilmIuL4zibgxOCdrvNJ598gjGWtbU11i+t5wNoSbVSoV6vY43JAixCkKYpg8GA+/cf8OTJU4LA46OPPnJLbM4IYw1bg8f88vlPGeoeCJPdCVbKibgmtwYWe+faMrF5zPgLvDHzPvPBytn9IS/gXIkNsrHbcDicPMbj8WQ8V2ScSCkn4f8kSfIbK47Z3Nxkc3OLNE3wfZ96o8HszAyzs7OZgPLgyWAwYKfTodftAoL5+Tlu3rzpFo+eKZZYR/Sidu4G2on1mg77Ty9vm0Yg8GRAVc3mQZLzx7kTW0GSJES5MJIkycL6ec5k4U4Wt59K03QyxzYajej1egwGw+wG9kKgpJoEQ7KyC9lqcE95rCwvc+XqFVcW4Zzwqq7feQuKTHNuxVaQ1ZOMGQ6HDAYDBoMBsJshHkURURRhrSUMQxYXF0nihO3tbR49esTTp0/Z3t6epGDNzMzQbDZZX1/n2rVrXLt2zY3RzglF9a3j32umSAE7n4I792JzOC4K5yb073BcdJzYHI6ScGJzOErCic3hKAknNoejJJzYHI6ScGJzOErCic3hKAknNoejJJzYHI6ScGJzOEriVBaPHlYS7rymYU7KWjuORNG/L2qz/dscZ5+LxqlZNmvtngccLkLHV4ujiuGiiua4lOZGuoa/eBzn4vk6X3DPvAbJnhtt7BNk4d7t76DDLOVBgv6ybYr3D3NhXnR+joN50TDisPcO6uuD+uRF/XTU78VBn3XQZxy076tw5jfW2P9HvqgRi9eHdcJxjlc0+mFC/bLjva68SDjF+2Vx0Hm87PfgsN+fZJ+X5kYe5Y94kRXb//qw37/o+Id9xlHO92X2fZ3Y3x5Hbduj7PMyX/L9F9CX2X76PE6zz0/Nsh3FxXN8tTnsi/iivj7OPgfxZRbnPF4UT01sR4lAnscGmea8n99XmcPG41+27f7v1UH7H+RFvcx5nRanPmYrGukwE32eOe/nd154GeHAF63bcSzh/m32n8txOc0+L2XM5r60F5ev2gX0LCk1XWv/1ew4g+ujctgV8ahXvtM+v4vGy7bNi6LAhx3/oCjySZ7Xafd5aaH/g9zJ047uHSW6uX+743SoI+M8WLWDXNRXFdxJ4epGOhwl4bL+HY6ScGJzOErCic3hKAknNoejJJzYHI6ScGJzOErCic3hKIlzLzY3qfz6cVH7/FgZJOetoI9b1Hn6vKiNXfsfjWOna72oBIFreMercFG/PyfqRl7URnI4ToITT0Q+LJv7y9YvvczK7hctInzR5x72/lETlh0vx3EL77zM4s8XbXfe+rqUrP8vqz/yMo37KgV7XvV3jqNzku182AX0OEV9DisgVUZfn3o08jhFVE5iIP4yBX9epTDQ60Txxdz/OGi7V2n7o3CU1dkvU0CqDM68bmTBUQq4OEtztrzoIlgWX+ULYGlu5IuYXlhavH6Z/R2vB1/1aPeJi+24ZcqmAx6HjcucdXt9+aoLDU5pzHYa1Y2OUhrPcbH5KgsNTlBsLypX92VFVF6mBNpRt3+Zgj/HqT3oigEdzqsWWzpov7P8vJPq62O7kS/jLh4lsveydQQPKxz0ZQV7TjtK5sg4qTadPsaLvnNfhT587Qv+uHGgoyzOfda/w3FRcGJzOErCic3hKInXXmxuvOYoi9debA5HWTixORwl4cTmcJSEE5vDURJObA5HSTixORwl4cTmcJSEE5vDURJObA5HSTixORwl4cTmcJSEE5vDURJObA5HSTixORwl4cTmcJSEE5vDURJObA5HSTixORwl8f8BOxOYhRxeWtIAAAAASUVORK5CYII=;" vertex="1" parent="KnDAXdpY1QjZh2z6YXct-2">
          <mxGeometry x="8.72" y="20.04" width="122.56" height="69.96" as="geometry" />
        </mxCell>
        <mxCell id="KnDAXdpY1QjZh2z6YXct-3" value="" style="rounded=0;whiteSpace=wrap;html=1;fillColor=none;strokeColor=#7EA6E0;fontColor=#333333;labelBackgroundColor=none;dashed=1;strokeWidth=2;" parent="1" vertex="1">
          <mxGeometry x="1327" y="1024.31" width="140" height="90" as="geometry" />
        </mxCell>
      </root>
    </mxGraphModel>
  </diagram>
</mxfile>
